<mxfile host="65bd71144e">
    <diagram id="Ap7YUa6_9zbYPxJCQJMS" name="第 1 页">
        <mxGraphModel dx="1196" dy="720" grid="1" gridSize="10" guides="1" tooltips="1" connect="1" arrows="1" fold="1" page="1" pageScale="1" pageWidth="827" pageHeight="1169" math="0" shadow="0">
            <root>
                <mxCell id="0"/>
                <mxCell id="1" parent="0"/>
                <mxCell id="2" value="&lt;div style=&quot;text-align: left;&quot;&gt;&lt;span style=&quot;font-size: 24px;&quot;&gt;&amp;nbsp; &amp;nbsp; 1、它的原理是这样的，我们不能直接把Less、Scss文件从服务器直接丢给客户端这样是会报错的，客户端向本地发送请求时，Vite内部的connect服务器会将你编写的文件如Ts、Less、Scss等文件解析成为ES6以上的格式，返回给客户端执行&lt;/span&gt;&lt;span style=&quot;font-size: 24px;&quot;&gt;。&lt;/span&gt;&lt;/div&gt;&lt;div style=&quot;text-align: left;&quot;&gt;&lt;span style=&quot;font-size: 24px;&quot;&gt;&amp;nbsp; &amp;nbsp; 2、&lt;/span&gt;&lt;span style=&quot;font-size: 24px;&quot;&gt;HMR：&lt;/span&gt;&lt;span style=&quot;font-size: 24px;&quot;&gt;主要是通过WebSocket创建浏览器和服务器的通信监听文件的改变，当文件被修改时，服务端发送消息通知客户端修改相应的代码，客户端对应不同的文件进行不同的操作的更新。&lt;/span&gt;&lt;/div&gt;&lt;div style=&quot;text-align: left;&quot;&gt;&lt;span style=&quot;font-size: 24px;&quot;&gt;&amp;nbsp; &amp;nbsp; 3、&lt;/span&gt;&lt;span style=&quot;font-size: 24px;&quot;&gt;基于esbuild，&lt;/span&gt;&lt;span style=&quot;font-size: 24px;&quot;&gt;Vite底层使用Esbuild实现对ts,jsx,js代码文件的转化，可以将JavaScript 和TypeScript代码打包分发在网页上运行，由于是用go写的支持多线程，其打包速度速度是webpack的10~100倍。&lt;/span&gt;&lt;/div&gt;" style="text;strokeColor=none;align=center;fillColor=none;html=1;verticalAlign=middle;whiteSpace=wrap;rounded=0;fontSize=14;fontColor=#FF3333;labelBackgroundColor=#FFFF00;" parent="1" vertex="1">
                    <mxGeometry x="920" y="350" width="590" height="382" as="geometry"/>
                </mxCell>
                <mxCell id="3" value="" style="shape=image;verticalLabelPosition=bottom;labelBackgroundColor=default;verticalAlign=top;aspect=fixed;imageAspect=0;image=data:image/png,iVBORw0KGgoAAAANSUhEUgAAA1QAAAHQCAYAAACm3yu6AAAAAXNSR0IArs4c6QAAAARnQU1BAACxjwv8YQUAAAAJcEhZcwAADsMAAA7DAcdvqGQAAL8qSURBVHhe7f1Pq2dbl+8J1UvwDdQbULgNX0FduNyGJQXizUu1TO1kQ7MQkuKkBoKZcFIUCh5CIRo3k7iNR5MgKHgoCEKIhlYoSHg6cg6c1iOIPXs2fAE/1xhjzjXH37nmWr/fjh2x43vgQ+zfWvPP+DfHHCP2jn3+g//mf+u/fQMAAAAAAAAAcJ7/4F/9639zAwAAAAAAAABwHjRUAAAAAAAAAHARNFQAAAAAAAAAcBE0VAAAAAAAAABwETRUAAAAAAAAAHARNFQAAAAAAAAAcBE0VAAAAAAAAABwETRUAAAAAAAAAHARNFQAAAAAAAAAcBE0VAAAAAAAAABwETRUAAAAAAAAAHARNFQAAAAAAAAAcBE0VAAAAAAAAABwETRUAAAAAAAAAHARNFQAAAAAAAAAcBE0VAAAAAAAAABwETRUAAAAAAAAAHARNFQAAAAAAAAAcBE0VAAAAAAAAABwETRUAAAAAAAAAHARNFQAAAAAAAAAcBE0VAAAAAAAAABwETRUAAAAAAAAAHCRH7qh+o/+k/80ff4UfM29AAAAAAAAAF+HH7Kh+pf/8b+9/Yv/7K9u/+F/8Z/f/ht//F9+FWgv2vNf/nf+bSoTAAAAAAAA4Pvjh2yo6LtFWdPzNcB3qgAAAAAAAHg5/LA/8pc1O1+DTBYAAAAAAADA9wkaqq9MJgsAAAAAAADg+wQN1QL/4k9/uP2vf/0/3/6v/5//1+3/8P/8f9z+x/+3P6XjVshkAQAAAAAA4Hvlf/A//J+mzx/Ff++//z+6/U/++n9xyFPLUYGG6gBqpPp//+//3/+Xm6r+NTVa2ZwZmSwAAAAAAAB8j1Aj81/+l/+n27//9//VkzQ0/9v/3f+e11+FxmfrPCVoqCb0Zoq+K6WfUyOl/6PmiqDxelxGJgsAAAAAAADfI9RIURPTycZchb4zRU3SrFHrDR19vTL+KUBDNYH+883Uf/fTv+fmif7rTVT/cUD6j/7U4z2ZLM/Hz7d3v/z59usvH24/pe9fLq8/bXr//vn2Onn3JLz5fN9+rz7cvvz+59vHN+MZ6/DprR2XMdl7eY0WK3r/HVq/WmP2jmC95nYhGb+8/9k+53m/3d69Us9O8/b28e41vkdI7xOx+ID4SX24M4mtlLPjXw4/vf+tsGMVy/faam0+yfXrlp8EHSuJXHec3fP6f4v8uPELXia9mek/kkfNVTbuKrpZqvBj6Gt6psc8NWioHP3fS/X/+o/10Z+6acp+3I/+bRX9N/tOVSbLI+ECZ1YstcJcLiVJ7LahootpVvycx162M77ShcgFoux5VORZ+TY2W71jG9dkF2UsPMXOMva4GGAbusb3/mL2ZBHS7Gb042fbGm9+Lptyv7/57BqqTNbVZx4aY32z7dPi3z5XGBsXMXCAlevcGl+lyHq1yUS2WfyLlNrW6/Ez95fYaF33E+PVWT/Dxy2eM799ef/22J98Js/53dNtFexWNiOVL7StJOfs+5D/U/vodaytq1xe+3bD540TDdU9+sfzv47X5+gOW49d4jg2zq0HwPNC35H6h//VG/56pfk5y//sf/6/OWzS0FA9I1mzQ+h/I0X/0TP6rhT9R8/o6z6Wvva/oIKaKRqnn2kyWR5KVvQq5GKYXGat4JxekCfJmoHIyeL+Klq/xYudL2bVuNTFoRQs0faZbm5s81u+rlzA/p2Xi6F1+rO0WFJzqvetwXlcQUK6Fk0T++BkQ1XK3RnrCa2A8bbyfqF1l5qM3B85tiCtWR13gkM7FXQb3Bk//azlY2bI/KMitmbBpyy7j5McG3/OTy5+WeYQZwsUcmbnId8jyzGElledQ5Lb7FfF30FcVvb16P3Y9sd5l7hf/wituXbOB+Ud1mL83Ll9grMOwDNBP1ZHzUv/8bre2FCD1aGGyM87Q18ne9dBQ/WMZM1Ob6aoUaIf9es/vkdNU/+a6N+t8j/6R+9686UbL00my2Ohi2W7MNJLXRL59DJpF8RasbjGemG0diFeJ9pGZJsXVnwBqznmkjcFhazvL8q6AHBj2faJDYriz8u1+257thcuztdDFoqF9b2uwPKxXxXb3ulzhdi2xWp49yG18Q7bwMo/iqHm/wXm8S+yrZ2RXI+KhxZZif8P0XMeGD/mzATERqu6y5kley3kC6+Ps3eGl8PK7mR18Zaf9QUSWxO53bI8Q8+sPcI5+/R5G9NkJbl5P5pHz6IP4jkt/J3IPaWIkYx79K9gvU7KPHKIe9dyro+ZOefiHYBvkf7jff7fTNFzaqB0Q9X/fZWefwaaj4bqG8Y3Ov3H9Xoj5Bsq+qx/HLA3UPoZNVZ9Hf+dq04my6ORizC5XELyl8TeL4p4gbrLrM3f3y9eSuVlZFi/EC/RZU+KHSnQ6gue7aLmmUveFBTVRZ8VBWL7+NzTfJTIbeWSfcy4pNjpBV9Z+LliJ4sJoftK++3+QsHYlrF2Mu/Zpy5mfLHGn6u4cjGX2Ctn1XfEqk3ut11gWR+FnpPMPxs/nTqOBku6k89/2RoDstXWIKQyaA70sWTn18ek+CmTf0fL5HOmRo8rZIvnQSD72+culjttf9Gp5YgO7cfvyV9V/B3E5cymHAtqv1XUenfrn8CxOI2DCMd7NsfYN2MhXgzZPdT8dhTrAHwlqDmihqVz1LjQd6/u+XdVK3vohgq/lOIr4xud3hT1z76h6t+NonGE/q4UQY1VH0P/Zf/GishkeTgtyfuLiC8Fk7BbstcXRTE3Pk/mFsi+/cKYsXYhnqZd7EF2dUGJjPn+fAGrseaSNwVFLMi67sGeTYYvv+S22dfoRUlymQ652oXrfZEUOyzPpw/b3r9tBemGLwTcnLSg4VjottKFjOjU15S9mtw8JysWDmhxRzbwcni/MAf+0OuleBumNN8Fn2a0WMv2Sgj+eAjaRyd4QPx00jjasXFT08eN8a83GaZ6aXno68TmHi+Hld3J6uLaxPz+PsoYxl2ym6I6X01nkZfioI2h8bRf/7P0gX7e8swK/lwqWPciF/A7ZYe79U/gvLHFL+eBiZwaL9cO75vZrVPZNaHUodl9UVYAnpLeuFDTQp/PNjtXWGmO+h6de74jdhU0VA1qoKgh0p/9j/zpJqk3UET/rpb+bpVutjSZLI9Hkri9ALKknIxrF4S9xLL1NviyPi7UysvIcLHoO4Avz7Bu08dfUE53mevY5phL3hRCYuNxeYpOX7a9aLwUEn7Nmc7NZ0RymZrCILNvUqSxDH0t1tft7+YYXTtmnvabKx44PlqB0NZ9ndogocn40/vPzX7yywD2tTPZ1T4sP++v1/XFios5p3uN6BnskuJsUrI67gpOzxSJNaNTYo+z8dNJz5LjSPext7IVyTDzmY+HqX/FBl2OTOY8DkdcGfvs76Ptw7iJ3ZbizMnR0Tp8fEP6tTHdbvu+VYwcxOWhTSMsk9Z98u5e/TPEJjRW/F01dxr2V6Yn7zuxz5lzfUIHAJ4L3xzR10cNFf243j0NDs3tP/an8WMIkqU3e18bNFSN/l2n/jn7kb/+rkPv+zia3xsuv5Ymk+Up4AvAF4sh8UuyNxdFuyDMJZY9U8+XLovT9MvuIvy36PRndnE3vWeXurLJ7JK3hVEsyGicHq8pL+lGf89NSCIry8W65np0nwf0eB4zLnEv075HoMeWLsRc8cDxIe+snRTTImJbe5uz24/GtjVYLvraF3RVgZfuo2U/g+iZ+TTSYi21YeTpzlKh5x4jzU+vlE4PiJ9OdQYEFzcZZh87vowtQseD/jrFnt+OlX3Bn1oWdQb2ZxtB5kK2ud0Gud3F7/QXEtJMOTlpPNvVPd8YNtD6JjF0aFPPsDHpltla2+U+/XN4DzWWPxudI+X67N/Z3IXY7kxzIQDfBlcbKt8AnSH7d1l6X/+LMZ4LNFQNaobov9449e82UWNEz6qGir471b9b1b8r1dfKfjFFJsuT0BJ9v4z8JSK0y1I/d/P0M33haqoLr19UV1i6gC7T9K6KMAfrUVzy9p0uyLY9tqaO7KrHG7iYqS5QklHeZQXjbtuZDkmxE9eytvCFQyo7x0MvrqRok69lreG78a6yQaZbh+bQWmGuKzzMe6UzPQ96FQXkICkaA6Jn6tOAt0nF6rgraB9t6PP8hPHD9je2XSf6W/vF22riD63Doe8F7wMbf25vF4vBPkH2YlxiayLEfkE6jtZsf7Ek8lIcNFlJLr2f02P3a2GTnULuCtZby+Bso89s/3xZ/wLew8vMsti9NV6unTavtI+z4zHaBwB8e1xpqOi7S/f+pj+P3pcarOf4ET8PGioFNUT0X2+MCGqOqHGihom+1s/pWW+asoZKr9PJZHkaWiLni0MK/Xjh6DHtWbsgzNjDS+MYf+HFwuxr0vRe3N9fpkOXcVnKZ7Gzt5PXfZCP9xhb9Yu/M9MhKXZSu/OacpH796nsPL4XQrpYF3sMffpn9dzLn0KybHPShlTWMjLp+NQ609dNr9wHWvYzJDKUKN3T953VcVeQONvt64vJigfEzw77ItNP9C5l0r7dn2e2Eh29T4w8Xh8Tx0R+Huvzu6F0r9/HGAt2SmxNZHu//uT2K/aQf1+mbUX6tbP1ix3P8qRnwdvaxVJCfS4SH3Fc9H1lL/3+Hv0raM083vIYyuTa4b1jzAy8/SYcxRIA3wBXGqqVMWfRaz7F+ldAQ6Xov6GP/tPNEjVI1Bz1H+0j6H3VUBH0X/ab/jJZnox+Wb3Xl5ZGkn0sMvzl0cZlhdIKyYUnF/i4hDVLl89dnNOHL2A1dr/k2b6fbx+TS1+TFQXCmhy9+Oo262t5uQS1ZlKkhULO4d/zHs4/QvcnFSH9a9lb+090p1913saoWBh7qXlJUWHs1+IzlWnT1f54ZLMF/zsz2vO4GGTSYksj6858vlJ4zpivfRbtoznsk67/A+Jn2MHu789EjzOjN5+vzBYxzpgkd/l9jE5pLLZxiuX421HxOxuv90tsTWR7W71bjNN6Zv72nP9CQtuKfNFl81/TGlmMeFvPYynYW8E2dme7P5c5Ioeef13/GlpzdSzDcVjoHGRq8kzOCADfM/3H61Z/KQW90+MfRf83UwStn4352qChUvSGqn/3if6jH/Xr35mir+m/3jj1H/mjr3VDpdehz5pMlqejX5TVBdKSv3nX5vgLIStu6DJZuJjkIrVzZwXM03Pu0uMLuNvRFSGkky8ijj4b2K62yOD9lGyVrfw4QXTj/ZIi7cjufs1Udi4iVoqvth83NE1HNXfIoubx+2iP0n6OoF8reHKd58VhjbJx+v7R3Lvfup7G/3fFj8jMZ4Y+t/xRQz4f+erL+z8anXlfM96j46vHoNO7v9vWZJ1ULO7yJvmMdWr75GfBxmt8v2D7xNZEj32RIe7Dz3les13wjTpbPGZbo9mBfsNoX9v8pYeRRc/va9T6dHnDu+Z/nRsiooMec7/+kTEnf285WLfH1C6zO6s6PnwssE2UTkUMHMoAwFem/xumVZ7ix/GosevN1Lfw3SkCDZWiN0LUJPXvStF//btR/t9R0TPfUNFn+i/7N1dEJstTIhdRcclVRUS7/MI89ZxZuZT2S6RdCu0COSrMnpam93T/NoZl9gWEveD6pa/nabvZ9x4vS5xf2SotDPQF7/3VKfUWvQ5l94XBjswPRZOOp0+f97lDL9GZ5+kCpDG3nya3vdbdykbyZnocEfdZQZoCu1+XL9hMU9p7lcIvAafXA+KnYt2nGSpe0vcC27ufj6aLmVPEmuQo2YP1neW5ZI0rGFl3hgzRVv2d2ptl8WO1rcQ/OgbHvuMsjHPp5/c16lhM/ZrKFYnn4xH6R9jHM5/uNHtNx8qY3T5Nhv6Z91LnxX52c4OtO02O8twB8PWh7zhRI3PEU//Gvade/wxoqBTURPlmiJ5Ro9UbJ6I3WvRf/y4UNVT0HSv6j/7sYz2ZLC8Wd7kQcmlul8MBR5fifbTL+MoF1QozLZ8tIvwlWRQZmmYnloe/tgWLLXAUVcHbCwB674oBu1a7qLO5DSO73k+Nsz7tBc4ohsx4pd+QRRUS/N4WqLX93B56n8zHlb0SaD8ufpJ3K+z+774lMh8yWo+kOE/8eJbVc2f2vzt+Ev8sMD0rjIqX9D1BY/o5IjnHmTJ+DT6RtXMZEn0rSl934lpBnyQXMD2Osz3au7GWshW/G/5lX+7+Gjay583b+tgG2nY97jJ7ZufL2OAh+kd438PzJHof+zHRo6/t7M24ZzxX75HNAQB8F6ChclCzRM1R9u+fqHnSTVNvpgj6r3+XSs/xZLK8TPxF/C2xfllq5OJMLrt+wfsLtUHzjotEVag4uWwR+51TFUkbe2FyWOx8H0gxmetawrFk56zFD/gRKHOQgn4ZBf0iGPmc52HbTAn7+VONlXzW+43Gq8/T6Fi9FP8HnNc/e7+t8eQ5prr/JM/359EPNO+xNgMAfB3QUDmoSer/Vor+pMaKmqTeSOkf8+v0d/pZRSYLAAAAAAAA4PsEDVUCNVW6idL/+Waq//iff16RyQIAAAAAAAD4PkFDtQg1TPTdKfpP/3sp+i/78cCKTBYAAAAAAADA9wkaqhPQd66oeaIfBSSO/r1URiYLAAAAAAAA4PsEDdVXJpMFAAAAAAAA8H2Chuork8kCAAAAAAAA+D75IRuq/+g/+U/TZudrQHtnMgEAAAAAAAC+P37Ihupf/sf/9vYv/rO/uv2H/8V/njY9TwHtRXvS3plMAAAAAAAAgO+PH/ZH/oiv+d0ifGcKAAAAAACAl8cP3VABAAAAAAAAwD2goQIAAAAAAACAi6ChAgAAAAAAAICLoKECAAAAAAAAgIugoQIAAAAAAACAi6ChAgAAAAAAAICLoKECAAAAAAAAgIugoQIAAAAAAACAi6ChAgAAAAAAAICLoKECAAAAAAAAgIugoQIAAAAAAACAi6ChAgAAAAAAAICLoKECAAAAAAAAgIugoQIAAAAAAACAi6ChAgAAAAAAAICLoKECAAAAAAAAgIugoQIAAAAAAACAi6ChAgAAAAAAAICLoKECAAAAAAAAgIugoQIAAAAAAACAi6ChAgAAAAAAAICLoKECAAAAAAAAgIugoQIAAAAAAACAi6ChAgAAAAD4Yfj59u6Xz7fX6bt/c/vp/W+3X3/5cPspeQcAyEFDBU7DyfbT2/Qd8frTn29f3v+cvgOLvPl8+/X3P98+vknezXj14fZlm/e92p9i59ff64sefEdcjeGr8x7Emfw1i1fOk88Qy0f5+dGInpsdHlSA3yc/NQon8h/HWu4j9u2BHGmscA5Wa9IehW3KWPNrPAHzOH97+/j7b7d3r7J3D2ZinyUmPnxy7oyfu2Vv9/1z5UpgQUP1UvnLP9xe//Efb3+VvbuTqw3VfvGe4Ohi5KSVzPPyhXGHFzZdKDJ2VYajcafgRPsCGqpDPaQA6heq2NJeMPzsoX9bWhddtNfUds2+HEOrTGNtxJnH2+x0DCtZ53HUfHA47iRXY/jqvAdxGAOdJmfGl0+f6zj59GG3t+bL+7fpc8Nh3tpYzQF3xLLJ5fpsTmxCLNm1yXXN/+caqtrXaw1FOp/lVzmMbPINNlRHe5CPj+14Ry5lJP+Jr0ceysn9QfvYc6HXzP1Y1SIf39T5ONv/vvhJbHdwfvyZ8Lrz52Tezkr+AJdBQ/Xi+LvbP/zxT7d/Yh7ZUM0SzYzjS4mT28WCWRLI7OJpcrv1ac/5hS3zvvxyJNuwy/HlcYKrRWUrRh4qy100+1SJ/FDedslejI8U3nMrFqaXt6PL3+amF3SiY7zsPQf2YS7GcLctxfBs/TaO9DwdbzOuxvDVeac4Kt4KTBxI3LKPnW/oGckvhVudn2jciH2Radeb9xhzQ4wpv62jYpfn3xfLPFbrfqZ5OCgeK+a5LSlSM6q9u36lbNaXWie2TzrHomULNuk43z8V3acSp1HWiIuXFkOXcmnwlYt/A+XArJbInku+3NdpvsxjolrXQ+OUPx4RP2S7flZ4/PaO/kzPj9OJSGKkjKeN6lyDx4GG6iXxN/+4N1F/8ff//OCGanB0MGeHOiNcyieQS2xy8XCiWkmYHklgX95/iIlMIbb43Mau63xIS8jVviWcZB8sy53MfCQX+cw/rfC9GB8ZvYio3k1t1woIL291JmZ7CRJn0zFXY7jFwscthjOZO6xz+47K6XibcTWGr867Au3lYivEgC58mFi0k//5c3L+1uPNFZS81jg3Icbc+9Pw/Ptimcdq2yT27AS7TsYe0/LCZusz7Psnew+9ae3kvHBcLhSw3i/LNmm5oOKyrSaQrHesm8WEfhdss9P8Z+Ye+XQ1Vqvmo/Cp1z975u10d/yIrl3G3VZlrHid4nzae2bz6lyDx4GG6oXy5A2VSXSROpFGeL00iRzDiWRSVIisSXI7pDdU7W+g00REY2jtMdaPEfkUqZ7uIqExnHxVAvWfG6Kf0p8vjkSWNn+nuITq93fYsu0d7dP0VnsZf3qZCW2/pmv6rsJcrE7nCm2L4mJm2yQ2q2On02SYjLls92afj2/EzumZ5DGbvfex7n1io3SdR8ZwMc6fpSCri5eoS0aTW8UO7bPr2Ozy5dOHzUZqXhabK7gYNXt5G2aEWExyH8nmzwLL62KI51+J5UJO5fMKEztKTu/bHC2ryBB9LM+zGDW2TmzU9a70FxuSvXP9bcy4eE787udPfZus8fUobGri51wuJRtHX1Q+JWh9H6uyZ/R1HQMee/4aJI/zf4iJxB/r8ePWIzv2tUo/i67dNma+WjfVp1HKBR4GGqoXCr5D1eBks405vb5K1kXhMZJfltjbpWv27RexllfmmnG8H41Tl0vTw182bDu9XptrZAlz2567DxP533zIC63MDodktthosmqdoj/nc4fMxThDt78tAvz+2g4h1pVvlpleYt4XCVdjWNuX14jnZNcv8UW08Xhm5X1wDCfjQlz4MfzZxubr96v2krjoa40YsM8NtN9ZfyRzbLy5/diGQ+c8Frf3/KfS3X/eYPt5eZWPljF+T87cxC7+bK3ZsJ9Z74fKN/Lc7NMw+yd7i33p37f9dvv4Kflx2jDH5812DiZ4uYJNOs73a7ZaZdhUnxnWP9sjiaexRn9+IZcyep6WK8PKIHkjs1+LAfpR57BGfb46mZwrsXsmfmi9IZPSi8YoWT19TTvfPk/jaSO3P3gkaKheKN/ad6h8AjjFJAlU6+pkpuWtkk1EX5bZJS3PZB9/sfY9/SW00YqYPrYa12Xe9WiJVus1xqlLwa2/X/LOhmZesfYjyfQU39kLLT5rl6y5vLJnG6xHYvMGy8A/ntnH+CJA+1TPUbZLi4tkXIP1mV5izT8Baxexn7yzcTihxYLo43Xtz5ouZixR2HjD+9J/tuPUmqsx7Mel85p8zbZZLF2F1lq1sfZLTbSNyGvpv5Ri15N9MnTivUIs0nuxhT/zw17+fePuWG6xm8TIEuTX7Fx3mZrf8/MjY30slbpuGL+GvZ3emW38nCZfbXdLFldlrGV7XbVziTr/7ZnEpX7WfOJ8ILa6M5duxJhaRWSnf7tF9uO1KVYMzn+GHmuKZt/ok2inh8RPe2bipfRzHlte1jKeNjL7g8eChuqFgu9QeSQh9eRZXXoDGb/rQYlO72OKHTe2J+tUJ31BTcbxfkpO/7khF4mXy8ud6MvPW8Jvcx5VkKZ4ubo/XBxFfyY2CmvZ57lvaR1al/a1RUCPiRItI+8RL+rqTLA+k7NS2SHHynsYw84e4ZxRDPTP3naVjcPYJ4hhN6464/y87StrbJ+X7NjXvIaWv/L7QMdbhOQIeSPZc0fvxX4Qu3jfmrjjcYkMxfNKJ7Mm0fz06y9U2NLeC/Lr/XT8GXqcR58PZC8fS/15FrfG1l12T9BvyBBtrH4ZAz8/zideLut/hbdNaat7yGOznyWyrXzt/UA2pmd6/rHujLJv36frz/HlxyeQXN1ulf28r9L3tF4fo+w7l6Pp+4D4YZv5c1b6Wexr4p3GuvmHNvT7gYeChuqF8uiGak9AVzg4xEfJb4YkkNnF6xmJP73IdmTcGGMTGu+76+XHtsIi1bu9Y30n41rC3hOo/9wQvyj9fSHc5lX49YV4yd6P1nv7zPvFfaI/3Tyi6aj10Bz7tdaP9tfz2b7aP6qI3Z9thHENGycZLR6nYzxtzpGuzU67j00BLXbd56djY7zpdzL3CWLYjZOYqBjzzLi78gmxdgZEdrVvymq8iS2tD4Z+IcbITuY8ubHtnf56n0u49Tthn4aN5RY//GNVrbEIc+Znrcv/burfiNinxV3yfsZua227RtTbxraxI9muyc5r0nrtlxP5+O5YX/tn40wfUa1/nol/OJ6O9pv71+ur7ctfb7H3MbFJxJ0L+vxJ/JDZlHHnwULryY/l7f5M4iHA56Xpe2/89HfKr6xHKYfEx26DloPHfJGrtMdGlA88GjRUL5Sn/A5VP8zZwaUDXSeyHJtoznFlvz2ZTfeUBKZ1HHL6i8SPna2vk+xkXLvQ9gTqPzdYJq2/9w3Pqy+9gErU9UV6DZF1JP5M7+jPxEZNxmvyOd+ZC0z2mq7b/HCK6SUmsXP+opvFWCOxE9uX9uJ3MW72se1zejmbsU8Qw25cFSsVst4252ReoH1IX/mTfvzueD7vdUeR0vfM3gUfeUzsShxZW9Nc8U+6R7PzKbquTbZ3pD/LQPt7Wd1Z8xj5HZnuu070uTqrtb7G1sneqS+VHPo9rUV7W/+1szzBy5X7v52pM3n7ErV/xhnaKM+em29sWvmnv5N5u/5nYlH5KLcfIb7I9xdYxy7vLBY7Ov7ujB95bnVhDuzQ9en+yXUHzwUaqhfK0zRUPdHbROUTST/sIVkU8PijZFZACfVs4UTwvOmekpBNwuIk6P5mqxgrNkguq5ZIu/0q+eW5srObZ8ep+W3ckCXR45Arc1bo68qvos/Wj/ZoMWfs3Z4txpeFZLB+kT23Z2/IdvNYqmLVn4EOrz2VU2xyRRdeexbDWcy0ooD+ZtjsGcZmdhcktoedos/08wsx3IqKfRx/Ts7SjFNzRNcejySPfB1jxSO2ED2PqOJ9f97sk80dDDvZmLM6yFo9pnMd7onlLrdf49Aeat1qH4bl1zG1euadHSooPpzuU3k2xvttj6PvkGwcrUewTZ1teB7JRjZI/PM4svhudt7kkfPX8lNyvu/NpYS3H+nu80OXKT6f2f84XnY70+cWD6/pWfeHYdOFc0rT6a74yd8zybqC+CGzAbPFyrv+zp+dck3waNBQvVCqhkqe/+n2D39jnx+xJ346mHxgdbLxUJIdifkoiZjEdhKRq07caRJr8s8vXUlgfky3g01s2dh2ERm9mk30s25L/YwTt9+n29MlSh6nniW6sQ3MWhs0t9tl+9q8a2v45C3r5MXZKnscFetk/kx93HQ3Nie5D+MoFgFEt9E8VutLOo2zDZZ9umaLk8mYyzGc+rHHkbNBNraycfHsYTHcnk3nbZBt+5jXn+w78aeLmYxEH1p3fM7zQKfyu8euaZ93O4X3LFutg1+T13Lxz/KlZ+KeWN7mtoaiXp/Iz1qnsgnjdefPK7lH9CrX7VCMZbaa+HLob5/JXu0cL/Dl/R9bPEc5WQal99y+xKK+KdY/rB/L6GOu6+btn/tXdNjGT2zZ8THw0yv5xSx2ruho85gwjSHOI1YX7UNj2yQeAnq9B8WPrEm2be9KOcQH0QbNN33Ons/ebraUMbtNg1/Bo0FD9UJ5dEM14yiRHHHP/HEJOFRS2hP8zsrFLIkqJGudVHeKsb1o0XtnerYkaMa0RGsTaEueapzopuTZE6qVJdjAyeHtmF1essaK7Sb0C6S4vESO3L5hnr6MJmtaaC2tw/BR/86ZrJfoyfvl+lcxTPqUFz7jfKrQ8y7FcIsF70tey9uqGBtiMxuTjbsnhtN58SxN110oHiTWoh0zn1VjK7977JpKl1nMsk0rPXwcZ8g+afw9KJbTWNqZyXgg/1T3GROdNT53dEpfSnxlcZHuxfIXvz47pcdvonN6Hhptn3kcZOi8139L3mydzK7eh3rNg1zaKO1nENtk+s/nN3l2n1odROcu48bB/UF77WPujJ99bz+e1k3l8Dboth7x0tes4o3lv3SmwCpoqMAyciBPkiaYkXg7a5cOAPfSiwC5oMrYcw0CXYSzy5svsxbr9pxcKXbA0+ILLUvp5xYT+l0oyiZUsSOMeDxkk3vE24l5DYr3R8Uyj20F4LItuvyzAvZrNFRuf613atdE3mjHWOiKDSe6JHEViesyZQE+Q6/V9Nz1PgPNvZZL+7s6DruMndx+szhm+t6kH389YtjEYGpHL4PS70Hxs+NsNKX9v67MWSR5Fu4ajsVLvgYroKECAAAAGodF2rPTC9ns3dflsDFKkUI1Ft+uCL1U+MnaX8t/e6xwQUtyV34Zuj1Stquxan9ENjYOM76ls7Gmv4orNBPgCUFDBQAAAAAAAAAXQUMFAAAAAAAAABdBQwUAAAAAAAAAF0FDBQAAAAAAAAAXQUMFAAAAAAAAABdBQwUAAAAAAAAAF0FDBQAAAAAAAAAXQUMFAAAAAAAAABdBQwUAAAAAAAAAF0FDBQAAAAAAAAAXQUMFAAAAAAAAABdBQwUAAAAAAAAAF0FDBcCz8vPt3S9/vn15/3PyDgAAAAAAfOugoQIXkCbg1983fvlw+ykdU/P607V5d/Hqw+0LyXua327vXrl1Hiz7T+9/2/b5fHudvEt58/nceAAAAAAA8GSgoQJrcBE/Go3L31Fx6yzx6W2b//b2MXs/Y6H54YZm3+OAJ2ioeoP68U32ztO/o/V2NLVHrOoGAAAAAABOg4YKnCT7ETX1HauA/k6KNERrjUNGMZ+atKTJ4UbJPD/bkCXfBSobqsoGsoZ8Fyp7f4yxNX+nzX3XrBH1BQAAAAAATw0aKnCSuqEKjQ4X/70pufDdpdDQPKah8vPT71C5H6ubNURii8QGRn+HW38V/nHJJit/nchjOb8HAAAAAABYBw0VWGJWvH98c9xQ0XxqPJa/i5I2I8/XUFXPu15fpaHi9UYzO/aW90Hf2f4AAAAAAOAhoKEC53BFvbDyHSph9p2eiG8GLnyXK2mo0nEpSTPyoIZK7JC/y5H1SS7dUEWZPWf2AAAAAAAAZ0FDBU7RG6K7Gip8h2q34wxt467LO/VdKXyHCgAAAADg+UFDBU4wvsPz5ZffVDH/db9D9ewNlVrzakPF311KZBZkLd0svf4k6+gmCg0VAAAAAMDzg4YKrMPNxOfbx63Y35sebkTWGypBxocm5hBqiJLfcHeyobJN24wou1+TmhrR+0xD1eQo9S8axw3fUOVya9BQAQAAAAA8JWiowCK9YdDfPemF/5mG6kxTk/xPddNxE1yj5b+rUz2rvkPFTczeCGm9TzRUvHZir521hirgG8uyoQMAAAAAAI8CDRVYYnxnRjdU/f1iQ9UaCWqUvmzjfbPT4b2yhqJockIj0YjfoSJE1r0pYhnz/69TxDc6Vxqq1lAWujMTmUxD5da3zR4AAAAAAPgaoKECS7z+1Av8aw0VF/uT7zh9fDO+c1V9B4bXyBqRUw2VIPLM9wuEhu5sQyVjgh08qw0VsTepq+vK2OArAAAAAABwCTRU4CR1QzUKe43/Ds2gfydqaU5rBtJGYNZQZd+xMU3I4Kixit8BoibQNppx3a7LYjO1UTaO7V2Q0+uTzpX92X6h0QMAAAAAAFdBQwVOUjdUodkxhXtsOMoGRn0npTcIb6rmiFANlW/Sukz6O1LVOmWDR+O5aZFmKF8rsYHSv26SxnfmBnXTJQ3VW2tLp4+Rb3+PhgoAAAAA4ClAQwXAIUXD+L2hvpP13esCAAAAAPCNgIYKAAAAAAAAAC6ChgoAAAAAAAAALoKGCgAAAAAAAAAugoYKAAAAAAAAAC6ChgoAAAAAAAAALoKGCgAAAAAAAAAugoYKAAAAAAAAAC6ChgoAAAAAAAAALoKGCgAAAAAAAAAugoYKAAAAAAAAAC6ChgoAAAAAAAAALoKGCgAAAAAAAAAugoYKPIyf3v92+/WXD7efkncAnOH1pz/ffv30Nn0HAAAlrz7cvvz+2+3dq+QdAAA8EWiowGmo2P3y/mf3/O3t4+9/vn18o5+twY3YmeI5XJh6b/r66DKV8VqHb6sZ/Pn27petofha8rz5fPt1s4eQ2+60j5YQPUPM3FEQ5bF5hJOD7fH59jqMs6zZRGKNbevGTmVlGxzLYLF6XLPF45naadHWj4XslO0Zc8exDWnOHfJ7/XXsr8QAj7FniGR+/FnNkNgO5zcj04V0vzfH7blrrM3637nuI9Z4ciZnZzkGnuX8fRvUNor1QckPbD8QQUP1ovjr29/+uz/d/umPij/8XTLuAvvF5ZHLn5OTe7dazC0n/0Ys0FQh9Orn209N1vKiT5LgUzdUYp9J4m2Fkdgsa6hOJPkDWNfmIyGRyxVAweZNXrvOAW1+3L9D+zXd3buloq3NPWuj6Pu1dVZtUslOMVHukRWgh4jcsh+dgybPMxeGwU6KePZ1ka7OtZpTxc/HNzI3e2f/ouDnbd9Mprjf1EfN3sdx3Uj8ENbXft9y2WteM9qgE2M3s+kT0WWt7gYtQxLPs7iYwfr1PbxNizNoxiZjzBlV+lS+P/R1wPlwJmeFs1Udm/m5yYix8jXO3yOY7VWz+5ntP5GJY+BY5u/XfuApQEP1gviLv/9n10D93e0fqKn6d3+4/YUady8hkfsGJUtGVy4QxicSnbD0s2y/vCCNSTAvTHiNpAi6RLukrdwDSbKTpNnsVxd3F6ns5J6zfNpm/D7KG8Y1MpvbBkDwfhC7OPlUwXOOSs/E7gsXam6TPOYyzDniuZnMlip+hGjP6lK/B/FJlG1afCYxkcvmznfz9X2FI43zfsma5rheyHWKPKZPkMVeFkNkgzQPZToUctEa98ia4P1a+3kj0auyLcuv4mon08nYxTa4A/dcy+Ll4s9NLv76xNlJdCwp1q5saHzazkRpn+p9kO05z9+9rO6dY2OvxYexVUZmq+/VfuApQEP10vmbf7z90x//+fa3f5m8O4UkipBktgvt3SeVFE5eQnyB/PLb8kUk431xsZqYNmYXmVm36ZsWMldo6yWX5Z7QZ3ux3FVivoOqCHDPw0U/s+NRQdB0CbH0aYsl/aNYfBmtXyS8B8XSss/EJ5VNWZdk/7Tgoz0rWzri/CR2F9eySBzNm66nYL5vFRP5c/GJWauINY4P7+vsGc3PYoLG0v5VPHr2NVyBfhFzJjpn/F6cj7Bu0+/L9mztXKzgfZ7FgMrLXa+ZrZt9M7uktnK+5jHb53fbn/pM9+e77srGJga7bMF2SexlqHXT95pi3aX8mcT4mEd+KM6Kk+3Zz99dqNjy7478oORhG2x3zsfDvBn3+77tB54CNFQvnYc1VANK7vrC4sTSL0XPLBFwkm+J5igJMpKseG+em+yXoJNbuFwbklj781YwpbLP3s3hvbPEyrprOe0eMs9imoA2f38/lU1sqNcK0CXh/BEuD34fdckvGVcQ7MQiLNN1J1m3IzHY5M0upUCzw2RNovRZfxdschTDA5pfNXOztaY2mpLrcRqSzdhtFBuHsu3z1Fne1yEkJkq7KFL7ke+dT6uYjAw9+rNsD1pPP6Mx82Isgf0r8yR2E1sFtGwtRyR6sQ+cndf0P4GSX561fXYodpU9fTz7z+rMWvmF8azpbfbq9PVGbPE8f472vZV8/T7J7NR0PYzJpbzT4DVtrBFL+TPZp88rY53103YYNrJjn/P8nUH5zr/zsWUg/fo8t0bhk5zv3X7gKUBD9cLhHwP84z/e/ip5dwa5mHJ0UtCHn78uLph9PfNeklRVnPQ5MVn1xDhJskS7GDOZhqz9wp4l5HyNQ4qLmfc2+yV7FHPj83PyiU0TXXnd8Twk9W7LM/D8bt8c31x1vVjO9FJR6wX5qliQOMvXi4h/vO3bGkS3tbPZEVq/wMm1iC5nHbuPQmy+y34ga4id/izYlGhrb0WP6GLZ46PYM9tramdDzB9Hc0WPs/YeMRtyXdfryP9cIG9rJDE8zkqL0Su56gDeQ8uvC8FddmVPpw/bTcml/Tbkl3fTZ5VuvF+cM95tspDMNL+N/fLps8xJoBjIZNBksVfS5TtDX7vLrdaTvek7/L/dPn7a8HHl5kjcZrH9nOfvDPGs7hSyCSpvb2i5xL9kw/He08d///YDTwEaqpcMf3fqgb+YYgGdEPjrLPFTcmljOIm5xCLPXLLkAuLzdlkkyWVPTpMkq4qY7BIWWelHD6M8j6PJYPZvCd4k0WRcu4Ct7tl6G2yryg6afrkk+rqEHxI9v497hHENuazi8xn6IsnmS5z0MZktus+1fvLs/AXl/MQ2ps9yAfNF2XzEzyuUDqwfF3GbHd+39SaEIklDe3dZ3tPX52x9HrEHy6SLNfra7R1jQs7pl+aHPScYZvHb/apo++uYEWSvsZada23qx2brKfQZ6PFwxGYHyTXFjxl1W7rzZ2mx2Nbz7/lc9Fzmc8MjUHHe5ac9d132eFD2dPp4u+rPLL/TKz5rNvD6JbIFdllkjXTcxP4sS9vjLPtevH6M8aX8qc9bw8zL1jZzxC/Pc/4exVh32R/aZt6Gmc3KGHgJ9gNPARqqF4p8Z+qRv5AiSQLEwd/oMFuyeNOSjk0WQn6JjP3oEqLfytWTZ1gju8D1+z6GkmNyGRF7UkzePRLZR8nIcvlLvemuZeHk7nTPnqnnZUHRYFn2JtKNd5dJ8BG/j7bOfdkuvf05+Un21HzZGoHsuWFbo1+gmX5pfOz7aXlzGVIKffhvIeldjy1nM2JqD1o7+Di5wAtbDyheaJ7EDdmF9j3y/9202CWGzUUG7QNvg+6j3Fdt/OQc8nttO3Wmd7umRP+TjeZzLLtN2Sfbs4mcBK9t/B99pcfvtqpioY/Z9uXfADiLreTdIxC/yVll+Z2sQ2eVj82YYXtZ09oi2ix51mOv5a/9N6SxP/TXY40dLUs/u7MxS3idDuD1L+ZPde4MwT5Dfn2mxH/Pff7uRcWWf3fku8T2IredM/PF928/8BSgoXpxtN/s9/DvTMUCIEs4+tlRYrlClsTGnnWS7Q2ZTl79XUhwTwkn86EDJ9Cwr9jaPHfz9LOYeIUs2Q9oj80m/Ku1t4uEL2BlO3cpBV+7950wrsF67s+jnzK/6md2/qOp4kb8EOxIum++0QUtxxd/l+noUh7nKOoczxhxpDu9lzl6Pn0d/fNoWDZvO46N8czaYJPrk8R11L/hikEL6SU/1rSfj+RMB5xMeQEcn6Uysnzbc2qoD/atfVf7mvcrzpf2a3bWxB9PeVb6/sNW1kbahupcaX28f52umc38M/r88VNbx/l2t0ECy2X2Exk5npLxFiWzg33RYsHao6Dw71L+TOK9yjP92ZBve/5NnL87ma2nbbvJZnVsdtl9uq3R//cSbQ7ban+vYFu+EPuBJwEN1YuiN1OP/SUUgk9EOsmMcTqxjyTe3mdJgZ4dJRNFTGIiV7jA1RyDSV5y+e+6nJDjOs2OvJfsH5OyHtOese3c2PbMF2VLkB3IT7yGvkjaRaCe03jt131+t9sq+3xn94a3g/a1KSiI7NLqOulnKzhdB+KHSq7UJi6GwhhFeiF7vTI9FdYu+ixslHo9Dt4/8R3p3Z9VNkj1ZyQ+ZnHNa3ZbJ3YPBDsmeyS2jjIOGxsZCqx/NM5XDMnU8teC74xdebz4gili7nF0+21/sg3ks+zf5Z7ow7ZWdlTyZjYzz/paid95rewO4DmJLPp5GD+3/6DbQj7Xca1o+p+i61/p7X2udMje13JafTJ4vS5DIk+A9V215wIz/2i9t6+PagLShX9MWtvK6VPF5HdrP/AkoKF6QfzVH6iZuv8XUOTEAmBP0nzYXfLvqEShk8iejF5t61KycsliX1s9I0ISM4lGXeBqvFmnJ68uc3uXJVGC5x8lu7Pw3puc/B2NLNmLrc2+fEn4BN7GJXaaUxc6wy/2ufdHZa+Z38bz3E+0L8/X8aNR6471Rlz+9OpttJtau3/2WNk0snawefsbytQmbp3KHkQul/Jp83l+MWe+H7bYn5nz8WAO41iYxUTul0w3C6/Z/dzOtPxPcLd5gU3/YIdY9GRxMIsdI0PBUWyFfNrXc+evj9eydLvyn5su/V2+57FNz5EVjV7GOs8wLb5J9hU/9Ge7T5rfu/3FDtt+9B0HM19k3eVS+zJ9rI6RXd7oJ0u06y5fMq4/r2Kn+1Q/I4xNnN5ENa+Tvc/lJI5jxch/6fzdSWKDHR9rK3urOaxbpsdLsh94EtBQvRjku1Ov//6vk3eD/m+r/uFv8vc1LUn4w+6Shk7cJmm4C9gnIxorn/vlt1Ic20vKXODp+I0iEVtZBzTf6tjskIxdR3Rk+6XrZHu0OT5Jc6J1OtLlMJHP6OQvn457rv06uzDsuIG1o9JfYXRoc/qzKHP3s8jiCzL+zOPo68J2BNuvagZkXlVMZTbxOlT2ILR+lmGffO9Kn2gLpsVIXCuXeYndtvKZ/VPE3Cwmyr2TAkLHAK/Z9yvOtCGsZ33L6yVxMJPRyFCgZbZ4X7lYC+cy+nZm1yo2rC53+D87G6mNm02DPv39Jiuh5M3kH882mdtfaBi/673pt71uevH4FqdmvUwWnq/8r8dkazBN/kTWaFPtP/k6rrfoU613o5rXqWz6POeP9K9y7hpTfRP/kuwmVn3sqTlGt8a3ZT/wrYKG6sWg/u1URvv3VPc2VEcXepXo+LlKCGUyconDJzI9z69pLnD+HGWukldci5Cka+Vsl+FRAjyA9Qprd4o92DbJPPWcmcpGays9s+IiwfiV98svxMr/1t/eT3k8ZM/686Fj4uMGy+LGjfWajQs9mImehNG1sGNlD6LSj+fs/vT7ZzHZqW2RzmOZJ/pX8DwvQ/Rph/11GBOe5p99nvWftdHGwXm0MTPmy3pim8xuMxl5jZV9U/9bX3n5YjxF+1axFdYims+Mjlf9zzibZetrgj7av+3rJjPLv60V8LoWuVwQ+WhekMnLEmTb4LMf5d3Xajk3i43c58p/9+bPtncgmSeILbysZs2A9s/43Mffd/7oFzrQ/Kux53zhyfy50+PCvVdzsnOd+fT57Ae+VdBQgUViEquSTJ3YFdWlsFEnKZXE2nyfVHl/vZ5PQjQvS0ycUN1cpkrML4Tp5TPQft194MYQuiCwvtCXpyou+LO9bOpnOeFyUmSXbh/v187Wme0/dK1l1fbwBDv2M6HH7+dkJQ7jGZ1SnYUpK34ZxayQF06zOGL6mSR78NdjHbZrlz3VQ+QcMgy7SFySPfNCcxUjQ8rMVsNXEnfeRlF+H0dlbO0x4/CyXvJ/R2wnNl2wI8vUY7jFh5F92Ir94/TKnh35vZRnkvMkNhqZbfcxk/NY3SVtPZpfyaZ9amTR8ZHobWPBn7+NxM8zOZgnOn8difuVvOZQsWRtdMxKTIhcyXwXD89tP/DtgYYKLCIHnA81JzR9yHUC94XBY5EkJj8OeCnBpMnrB0ZdJP6dvVge6VeKF1lv7NHW75cQc+Gy/Yqw7HRZTmJqH+OfZTrP4rKduekFfpLDguCJWdtf5RZnx2tQwf7ZxPKZokznHPaj95mJX6I6Nz2fjrMQx8zJYusM9/lf/EL2YPulcuh7oY8Z8+J4IVsv3UOdu3Cm9DiQsub/R58/y5UYvDLnEHUPZue6isnnth/4tkBDBQAAAAAAAAAXQUMFAAAAAAAAABdBQwUAAAAAAAAAF0FDBQAAAAAAAAAXQUMFAAAAAAAAABdBQwUAAAAAAAAAF0FDBQAAAAAAAAAXQUMFAAAAAAAAABdBQwUAAAAAAAAAF0FDBQAAAAAAAAAXQUMFAAAAAAAAABdBQwUAAAAAAAAAF0FDBb4bXn/67fbuVf7uX735fPv198+319k7AAAAAAAAngg0VOAcrz7cvlSNCzc1k6bnTn56/9vt109v03f/6l//fHv3y59vH99k7xISPebrK3iu1vPt7ePvfW/6+sgGMv7L+5/3Z7z3Lx9uP5lxTwz5K9X3pC3PMouhK5AeX9N2HOd/flwDf1X+k3Z8/cb7OsahwazvYoJtoPbmz0939me8/rT54ujcsi7ks7NYneocsXLuRdbS3itrkB53x7r40suxy9ZsVcsp89k+y7LQnEfFxyPXAgCAx4CGCpygXaSTInypIbnMQcFBRd3q/kkxGoqloniJRZWS69XPt59awV02JL4Y3ThqqLho3Iu8kzRZc7kzOcWXlfxVAVsXmxpZuxdrR3qtNXWix/HebdwZuk+aTwXlu6NC/VAmQuSqC9icyg85Q3dj03AOaFyPZf3OxYSJ4Xb2u86OXS9jw47ey79bs8k5O0TW4laoxyq7hXcDkrXWaWGNIicdM/yfQTLtslEO6+O7rs53K34J0Bpa9jQeHImt2d/pucyweRYAAJ4KNFRgGS4m0ktru2B/qd/dU+x4WAa6TFcu48ZeBOoCMRSSrlhqBd7HrXCwxYsUGrbQTwqhZP1OVgDueqlnl4unYu+0GPRFDjNrqET/qb89an2ve11gZjLMi8KKsUbmu43UBoVPOO6UbSd+DvZuMZXJOIXWOBHvAedz9kE2buPjGxXLRrdJQ1XYLxDGVXsRst9K4Z6dp5yz8RP9mp4hRukS3g18vNvPC2uQnVJbV01tFpu5beuzqMnmVnsTdv91X+WkZxIAAL4B0FCBNVpBxxdpWhi1YmtSYD4G2uvi+lo2/lpd/NslvxdLrGte2OQX+loxxfC+cWxcV2x6qXgofJAXg3WBFBqPjVlBk68/4GLKzeVn2g8OK8MJO6eoONXPi4Yg1ZVjQ9l2Eu/BHpOxZ8lseQ9DVmVjI6+Lid0Ow6aHMvEc698z36E6ipUUE4+5/9O4Lfz8jsbSuqynrBf23Im+Jh28TuOzsn23VbMnyxjWF2R+cmaV/y7ZrmN8eiJfpPFOOka7rHAYXwAA8IygoQILJBcmXfitCPFFgn73XPDl62XQF3xy2e9Fi7q0bbElBRTrmhaHOdpuVVHA++zPxd5x3KSA02PTQqYoHIngr6JAavvL8yajl8PT5dJ7uELPFmedTAZVcOqxmb78LJuf6EWyHfiE/ab1YrY92z7xXUPbVcm5x9oB0QdErseRLX2D8E7NH3OVjY1dnT84/luDwTr+fPtpmzPs5PzR5xg7V3sRsp/Wp9KP90ziOsZ7brf0XDT9dnma7K/bWN6z0oU+O32GXQYkh9GJ91TvP3l79TF2XZmfnJdg04bXrVHmh41M/s7HN9lZ3aj2vwLJrGQjWbNYAACA5wINFVikF2UnKS7os+gL3Rd18cLOCydzwSeXfVZQ8L7tWZchXuS9mHJFlYf33NbwRdIG783Pu51P6EV20GsWhcysYLLkenT9Zf9Y8Ib1vVyMnTcr1Airq7azfhftwrIEG8i4bJ8SJ7/Iq9adFI3BHpOxmjrOhBEr9jnNmxWZsq741dpH26/bePt6Ud4UPpvefzlG7sm8Sj/WK4nrYP/T/h+6d5v3horXCmurM1PYzusgPtGoNbLzw/YZ6471kqZmUYYdWnvXKZ5vhtf0z5O997FF/DQ/rxBk4LnKTgAA8A2AhgrcTXlBP5x4cUthaJ9xkZIUnOaC569/u33Z1uOL2xRLfY4qKloh8zHTdV/XFVUGWavv5WWTgm2Th4uIoghpBWEoXEg2vWZRyMQCsyLRg/fY9N/tHwuuEAdero1emAbfLDHkYh9Pij/7Xs9fsF8jytp9WPnngMQvLGeXid9vn2f2aWOCDhvB/gnjN/0pmxm5lO8n8q5gZOy6XaH5sdIv93UW77n/03PRznvXve9RnyF3ZhLbEUOHkQ+GTm6NLC4TufR60eZtLM9r9sygffR+PNflgA3Wfxtv/ZDsTaj92X5tr+hDFYvmeYby4WpMzc4TAAA8CDRU4G7GpZ6/fxzFxd2KBZaBv46FABMuYDcuu6DbZdz/H1iprnsh4goiP4aKC120KHqhMr/884Jw7N8+q0JGj6uLQUeXVT0T/bX95WtjqwwtF6+7PWsy7DofMOyt7Otk5LX2vQo7rdqvYdfc2OODGvFYKFbs+xV+GbYsYmenj1vfO9Nrp9mQf2zP2K7Jkci7dtYr+1u6/LRej4XZnGpvXieJ6xjvuVxx3IaJL7H7Lmd2hthWyn+Fr70O9rOy/fa5lEv5dMzXZ7MRZBh6pDGvxuc2Ffuxz+gvf3a5k72J1fgJto52E/r+1XuB7TaLewAAeALQUIEFxkV6iYddbsXFTfDlLfuFC3uDL9nt3axgWyErCEbhYwsizf4/JU4KmS7bsZ3ED0EHv2ZRzKUFWkI9bmL/jTBPy8VF02+3j5sdVmRICy+tF3+tbK2LMv21ofCPt1+D9VHPWSb+7YbtO5thztw+Xf79Fxss0u2wx0mqW2Ezwybfe2t7mkNrDpmVjZI4inuIzvZZjNO+jyazUzaux0v67ggTayJXOi4l2nnE+Im1lAzefvaz2J7PSJvrbZTFpIxJYs/5z8xNY775/o07Wx2eI9+ltroVcX8xfoaNxzxZaxvH5y+P/463EQAAfA3QUIHHklyij6O4uAkuovtF/1T71wWByNQKEl+IaEwh44qywyJAxgf9fXFU+CArVH56vxX4Rt5iD8bZ3+0TbTPohd8uQyuQhs8mdN3Mfq4Q43die9orFGT7GLf2EcZX2/qbvSS+aH/v60l8Es5eliR2lE5ddv5FBcUaM/sLyR58bvQzNSaRN+4h8UK2GnrLs2AHc0YHPK7wjd6r0q/ydxbv2RrpuixrtHNa7PfnJHMWdwq/l/2c+MdhddXxlsSe8Z+89/btiAxqTNCjry9/yvju52RvYiV+fO5i4nr7vMIvGvbFYS4FAIDHgoYKPJbkEn0c+cXNRUYoCvLCpI9dwVz8an4oCHZ9Y0HE++nipBcQPG+8q4oAnm+K+iGfQc8tfGCLQVnL6zjsk/kw2r8Xkub/X2TmWKwMG5sdluxMdNupMV4fkSPGCGN85Z4nttc+2eX2a/DnbrMEvW6xjxDtp31PX7NOlQ5tTGbLnRAXYiuW09ixybFaEG9NnrX58IHxd9Bf+SrsJbE21adh4+CIlh/6eN73OG47IX6Zfi6iDz3dfl1ma89kvvG3shd/1ucxns0qDzBFLLJ+yZxxFjK/JHsTh/FD8xJ78TyKy0T2Sfx3hqz5ewAAeArQUIE1+CKjS+48+0W7X5TJ5buEvbjl8qf1/KUs467vUxMLgnlBZMdvzAqZ5HkvvOSzL6gKikKK99jWErvFQkae07xmvyCPtf9Oj42FIqbLsH9+1YpLNzfYbSPM3eUdY2YFV7YPs+CT11vTwGtO1i/t0/DyW3zsFL4+0M/bTOP33+3B8VIVtpWu2j51XJo9g53VvLCXP1s1rEdp1xyeQzG7sbJHJ/PhsIP9Wo/Zx7U9u62sz3wMJPZLbCRrJbE38x+v5WzA4+nzmNP1edd/ZDn1SxH3yf5aX22PiuCb6fkTSh/s+iWyAgDAnaChAufhiykpwPZ32YWnLt1yzJy9CKICoxUEs4vxSqF1RCwItB6+IEoKjVBUCnEtQgrOUFQcURQdxn7pOy277G3HRn3GmlvRtb3jrzcqv7Cehz45UbQ5Sp+3YiqdP/OJX2ta0M1kPJI/FtMpk/11bGbo9xJvYz+2m7dBcU67z8delW7uOcs+YqTD75t//LuV2C99XlHIsbJXiAley/ots2Vq3/68lF3s1+WKY3XMyNioV/NfprORp+eatwd7Wpn0s7A+o+Kn+5jX63Oqs7RB473NJvHfYR8FW8t+I9bmawAAwFnQUIHzvPp5u6yKYr+8rO670Phi5+KhXcRJcTKlKKJW0IUiycE6t/X0u/7ezM8Kgkz2XmwEVuwUC5rgl+YvL+++70SmsVb34dgv7kPIXrs8qiCbNVTWdq652O0WdT2CZJztq30ijcaYG+zFfm8+aTFwCK2t56Xo4nhCW+fUL7ZgvZX/m9xGt+xMqmfaLsEm7r1BxxXta+JMyRT2Fz/n8WWJRX/ExFYxttRBjddxJGvmPpu9s7iz4un2Yp/Jerku/WyqtTOfdowvmgx9rX1esmbql2zcRhI/NEbkL+Q6osX/bC6vH3ysZJzZBQAALoKGCtyJXFT7BW8ueUcr5PrFmo4p8L88wRQVR1TyXID27X+Le1YHJhSVz4cUOfOij8asFLVPS1GwPQcLBV2GxI23ozs7K3Fxcf8x78iWF2R6ZvIC+mnoDRXveWSblu/uj9sniH+Vh9LYbLJfbnw823pG/n39BbRveZ6XKTalqa3Ung+1JQAAbKChAgAAAAAAAICLoKECAAAAAAAAgIugoQIAAAAAAACAi6ChAgAAAAAAAICLoKECAAAAAAAAgIugoQIAAAAAAACAi6ChAgAAAAAAAICLoKECAAAAAAAAgIugoQIAAAAAAACAi6ChAgAAAAAAAICLoKECAAAAAAAAgIugoQIAAAAAAACAi6ChAgAA8AJ4e/v4+59vH99k7wAAAICnAw0VOMVP73+7/frpbfKOipnfbu9e+eedn2/vfpm9n609yMc8opAi+b6VYkxk+fWXD7ef0vdfB7b1ZtfOl/c/p+O+a159uH1h/T7fXpt3R/GQxByv5df5N7fXn76y7d583vUhH5Z7q3H+Hcl8dBZTvdgG83N+zFEuqWG57z03q/b7hqjlrG1ZxmURxwNac/Z+JeYPztehDBvFmPyOKJicgaeG5Uxj9RH32R24+F+25T3Qnsvn9ufb6zdZ3pnYzKxvz4T3A39+lpiQM3Gcb47PH3ge0FC9MP7i7//59k9//NPO67//63TcVeoEW1/cnfoCUe8Pknc2ZnkeF84dklUuLvtc87ikxYXebL12IUgyzRoqkfU42a4h8syZ7tXkzeaVdB/xhZ28P+LAx6uYWCjj8UJDtSFrDz9PC8tlO5xsLnRBtPmJYzyxXS3b8VkmsvlTfRsx9jZZj+Jpkjcsa7JPWbTfNdrZ9vot0m0b7Mz2y/Su7VH6itea5KoN9uHEJsdx8EQNlfKdGVsQ9dDnOrddvEuEj29kbvYunuF58ezziIXm6vVm+ypWY1jZ9adXW/NCNtpleUz8Wua2CLB8tJ6zKfle5wkdH+ad9Svb2ryLcnd6vOYxoPYK7yaxvrNuB95f+bOKSc2yfcFl0FC9JP7mH20DtX1+dFPlD/Igv3wsKmEUSSfFJw69/55cK6JMfEGEAk1k25NedlnfQ9O3SqqSECf2a3o+ZVIkGfL1yTbOFixPlLeKj6MCrGSPk6PYuoC5ZD0uHgJy8fb3UnQc4Ww43b+zcq4cIXZpDfW5OnvdP9V7Jz/pbOKlnNdx+jcbx7hwOjs7rdk657io2Tiy39ekiJFg+4387NXxk63BLOU+WlfsKbkrt7dn7OfP14X868ccxV+wY2aboZdeM8+LtW0tNM7pYmRv50DLmrHL//Nmc5FLxzOfiyzH8l4nckhi+59evd1QY1ZJ4vdMvHisH2Z22/R9o/Qwcli/sTztXXV/ecI4bbOgs4upEtEnjzXPmbHga4GG6kXz17e//Xd/uv3TH/4ueXeSljDe9WTICUMSRUxmHXeJ9HVcgu3MkllaRH36cJBUkguPL0iSa/ESIxYS7DHNVulaTZbCLgzb/4EJlNbzsvAe8eJl21NDpZ8XYysflpd9iYqth9g/wV18LHvfM2NySfrilNfS49le7jxwLCb7BLSdj87cHJY3XPjabxSL0a9H5+bLe/lOTlk0JPoPG63rlMV/sPWUB9gvXfeJSHxF+HgTbEyOZ0kO3NZ813Mq+Z39Y3U1ZPaldYqzmcunkTgasrrPKl72c7nHZxsXxmz306tkT47d6LsR8/p5YkPepzgT3i7ZM5rvnln7eFskVHuZMyXrGLsXuvfnZ5n7NCGT2yAyV3F0hd22Kj6sHPZM7Plj9/OxTHtMGtRe4Z32QVs/GTMj2D6JK/C8oKF60TywoWoJ6XW7hChp2UTpLm6dzArypORwSY33bc/shbhwEfLn6uJyl1opf0uGFxIZy55dzEEuu4fMs5jk2ubv71dkox931Po2QpHBl0Mlc3we5je0344Y+ib73k11mbW/LNht5+Jhv5CT+dtzKk6lqRCZ2Q5q/MftXYgnc8lXuHO1QuGbnWTf7rfKfxIHWn7Rq8ch+WyPyWx/P58/VzI6nQ/sNGydvz/Nkf0egT+zGn/+Et2MvRVkC/s8xk/3sazxVuJZ78myOV8d2Hec2RqRKzt/JJ89byyjev/xk47LplP/DoSST+To+tI4+uzO3b5GZkMb1zNSH5As7vyEM6XsK7H7Oc3FhgUfCM2+bc3yjM3W8/7PuDN+d3gdL6ONBUvzqV5zi4MxX83Vehg57JkQH/QcLjFKP+rIdvR7NWY+jTqLzEOfSj95nsVedd7BtwUaqheM/Huqf7z9VfLuLD3p9IaKk4S5OGyS8klZX7g9kfQ1e+LxSSokrZ5MCfM8rsUYGbJkpdZLyS6VlmiTJHsIyxMTI8tu9kr2KObG5yfk47n+MiObdFnEPunF1vbN7VbgfJYhtlgbey8ckz7+9s9ix133g0tyXHg0bzRn77ZCkO3L9nLxRGtq+5R4Hx1Bsk3mJEWOnLVN3l+keA0+93OU/31Msl29/8z8JK6O4snJq/F+vJ8D+z2C9Ox1PyjbJb4iRrzZ54Ek7rp/9jW2MR/1Wn6OkaHlF/bLkN/73MsX5XXny6zbGTIEuxCJbsSeQ5J3fky0ocjxZTsHVhZhl3e2t5OztkWPs0z3BPaBnB155uMnWac6F0VcCQvxz/pfj9+OjxvBx4an6yn25zX6Hlou7aMDOWZIrBzYg7Fy1/Mq/eR5jMns/Ax6LK9Q2xQ8AjRUL4y/+sP4hRQP+c5Uoye+7MIQXBJOL5wk4agk59cOe21JkS+67ZlNMHLJhGShZeCvdXLxic4luVT+e5E9bGJvF6SxaTKuyW+TarbeBl0eSxdATNT6M9m/SuIiT9yjio8eP/65x8fE09HsvsVT/7EJu7eLh3Ah25hj/TiuZjwonti/2foE+aQ4D3q+s7HxW+ZbN4f+DceXzT79Oxz23CSxp+cH+b1dSH61RiKvZsX2xhZhf82C/R7B6vkpdPfntoT30faVuKa55Rp+TiqD9ZE/337tuJc+X2Jvsr+NoyFDmlf2MWM+YffJfCmyS/zSv0fa1lbzhSSGd1re1eObfaKe1k5+rox1uWaJvq5eL5GZbeT3254XZ0De5zIbvXjduN9q/O7vMpmX7KF/05/ysd5Px1CQw/phjpOxsN0Kc38ndm6MuLJyxzWULcxz8DVAQ/WSedgvpRgHPb3YCJ9gdTLbsYkkv8gc+17b3E/uO2QtQfI69LXfM5WB8BcGYWV7KkRntXdLznbfljT1BcC6ZJdakoDb8yu6xIKggPeIl2EVH7RuGjeO3ZfJO0EujBAnq3QZNrvL30K7wmrf28VDuJDtxXVoNxWLbAsv1yrehmrd8VxkL+WpCgK9No8Z61rbbLpvY3edSYY2d/ezt1ewXyOVPzufFe2seLvsWD8FrtjvEfC+C+ensNthvDXieRr2KNdwvs9lsD5aiWm7lztf/rPzSypr6jtP9H9fq9L/KAfxe9Kpj1H2mdtB+Ztk3/doun8iu2fzOjpe5mckxJEn+FTb3/pC9HV2vjN+u1/kneyX66yY6NN9xv8usI/T8THVd0Khp2XIT+tJDMzmVHvL8ywmY6zma3Q7iJ6bjVPbg6cCDdUL55E/9keMhNkS4gp7IrRJQB9+/tqM1XvJ15RQ9DPBXizmvUqo/LwnF0qu9JzfO1kdhwn3LG3Pnhw5+Yak1xK0fu7m6WeZ3ESWmIn5pT9nX1PZVq8d/SPwnslzj/HTE0LycAFDezVd1v4NVV9D4v+e+MhstXpx7hR+iOsokiInytJisD3TfmHbbfKEPZws5r3ak56HdflMjjiLFAVKOwOlrvx+Utxcsd8jKOQKfkh8RazKNxu3v2s2zO1uGWvZvKt9yl+bsZkcPq7d5+aXj22t6P8Wn4nvLP6cbvM+jThMbcOxWK1L+7Z/09X9UvjIYPxtbbfrTvmIbSh70HuKh+EjPSe595qPSrSMQeYmQ7OTj41hv0aQRzgTv0GmHStLztstX8d4Ck1r9+OBvkKS04OefR9NtEM+rsdb/u6I+fkhovxljIMnAQ3VS4e/S/XPt7/9y+TdBULC1M/p4CfvBlkS6MlV/QbBkDxojCRGvz/PNXtKUhmXQUuoKjHmOuSyPZ6WTDm5K1nLMe0Zy+/GtmePkZn2bN+toe/cTP24wUWH+GqZozU32DfpJftAyG60h7pk6UfYuEjK5O4YufzlJZ/TeQ3vp/3MLFD6WMe4YmrHpMhJz4Rae7zf4iQtSCVmy/jUe3LsyLr5hU+2zIqUiNhwMpZlOHp/0n6PoJAr+CHxFZHZrefI/dmB7rnt5TnFXPZukPlo5K39NwiWsStjxzv3ufBLR/xO629jeOzYb4qybaV/PNsREx+Fjwwq5ofswv7LbOhXofczdrKh8oQ4csT3VmfRb9ubZMzWuSd+2RauKTX42EhI4oP31s/0mCBHssceR0qvmZ7Nf4M2jvXz7/RelX7yvDqT9nlcI/qUWM+l4H7QUL1wnu47VPp5P9xHh9clgZ7A2np67X6p+6Rj95dLwCcuYUukLonymu2S+PhGZMnnamzSfgjtQuELNLVXk01fAM1WWVKN/jjLuEx74iY7Z4m9w35ILsM8PprtF+Ss1n0k++Xk4sPu7WI1XMjdZj3mZ7Hv1mpkttpl25/lc3d00aDhGCtiN+hS+61zKOtejCRse40f1aW5Pb7pLHbbuTkZTmafP1JmdiCu2O8RzOyl9Ul8RWS2tzHSbEzrJfOJGGtEi2P9//BJcfHO9hrrjbW7HP5s9LiWP/N/i2f37+fzDf2ZyUgyhFiQ2MrOT64/0WSexJXJFc1HHONk78Am4yyeuq7NhjXahrN8c3yeg+4sg1qvx6eKHaNzf58xjV+yrexj1jP02PDPFX5dJc+uV7drNj7Zg+T58ulzYgf5rG0W7KvGxb3qGLT0s5DFpMfLT3sk8dVjKrUzeDRoqF4M9CvSXeOU/BsqabD+dPuHv1HjTpAlap0Y6yS50ZIeJQEe5y6EuHZMRNn+JUViy+VbSOKMjLsvQTU5DmRJZfe6t4QZLsdV+Xj+8EO4NGbyJX6o/EPrrvit3vNRkOzVJauZxwPrwz7sl5jyaYG9/PIxUzJZ96LBx5R81vLvvk30PjpXmf90rBwR1m+5IN+TZLe5IdL1TYoIDcf3ZMwV++3zJUZWbWDgfY903ChitMvCfkn04+dKj8zOmf94Xhurvw6ovJHJENZ2+socoj9z5233S/vc5uj/NUE1xsoc/dgJMmqSuNFrmzxV+Mgwi8M+n/7k9ckWoiPtwzKGeCG9+mcVu0fw+mPu8EN/J+vvz/2z/vnO+CXqXD/PvYT1nYxn2So7T+Qgdt0meuk983zW5oW96hi0nMkn1ka7vyYc7w/uBQ3Vi+Lvbv/Qf8MfE3/U7+ENFScwm4D4cPvkxePuP9xh/wl7kmyfea6SwSau4yQutOQ9Sc4r9ASYJ89iD2VDM8/Zdkk2vgDiWH1pmHEHPu9U/gnrpjzGtsuQHuVeVTw0GYOOusDxVGtF1uxENDl2v8ciQuK9P1cy+HjplOdKCgIv11lZ9dge/x1rm5ktCZGnLFB3Kl+pd7sMJ+zXx6wWlXfAMoQYHbJH+/d3Sp92ho/8Z/UlcvvJuG63s/rna/bndTwlRSnr5f1G62iZknmNefx6Oa181gYbBzmL492M6TEs8Lp0Lnm/oQPtw+9CrLUzQt+lS+Kb5Uue7+9KedXZMnEj+md2nDHbq353tJd9L7nEntOge5rr29hNx7FXs2uIafucZW++G7T3RX49tp3IU8ekou0hY5vPSp9u7LGVvAMPAw0VOIVO1JLIsuQT35nLqyVqn3BKVCLQ+3tkT824bPmdTjhnZHhRiahfIr4QEYyfNP2S2GxRjtmI8dHJ4yReTPm4JyG9ZDv20j6mFyI1sta4xC/B/68o+nrFTqo4Yv+1OYne9lwluiR2quMg0XGf397pM9Vja4Ev7/8Y53fSM+3jvMt2h/36+2n8XCXaPsRgKK4b3Y6Zbdo7vdbwX7dJlhP8O/m8r3PCd0SVN5ijnOz14vGZzBqxZ3aOZ3mM6fLQvs7mfF6679M46HYb2PPf5NY60DqsI42RvWgfltHtv8u2kelgz7NmrB3etTXtejoej2xNLMRvo9tQ/3u7I7wteI2Vc6mejXspt4O9txTKnsG+2j9h/zoGLRIb05jcEPlorxZLIfbAc4GGCpyiJxI+1EcHmRLLUiIB3wqHRcZLIrt4d+SyWo9dujTzC/r8Wo9EFThpgQXm1Pb7ls6KFFnzgvc1/w+bh7wiv/zbpaPYSAvX54aL2EznVmh2vxVnfM1/T3t+SIY9L1A+Cnuo/ZUevRmp7t9Q8H+DHOlQMebNci6hbPdE/nssaw0V/QIlrbOcTaXnhB/mbn8m0FABAAAAAAAAwEXQUAEAAAAAAADARdBQAQAAAAAAAMBF0FABAAAAAAAAwEXQUAEAAAAAAADARdBQAQAAAAAAAMBF0FABAAAAAAAAwEXQUAEAAAAAAADARdBQAQAAAAAAAMBF0FABAAAAAAAAwEXQUAEAAAAAAADARdBQAQAAAAAAAMBF0FCB74qf3v92+/WXD7ef3PPXn/58+/XTW/MMAAAAAACApwYNFbjAz7d3v/x2e/cqe3fAqw+3L7/nc6tmSZOO4TX/fPv4Rj07i5brzefvvjmjBvPL+5/Td08PxcfW4B748jq0/ufb6/TdPYjcq3E0tTHH01zG5XjfYpspx56Tu5PKPzmf67y9fVxZg85ZZaMF+70kyM95LC3asoDj5yiXPSJ/XqLliYu5tj4/ZLPn0Ockd9r9+fTf1l/M7dP4m5z/5b8gneUQAL4yaKjAaTjZ9YTKCa0VfCk22dUJdq0ozC4Rlifde2Mx8etC8qdXb+WiX527yFTOim6rdvn695W90mL5DkT2ycXV5JM9W6Fk7CeX/KNk0nHAXyubzJjH19dsqOxelQ5L9lKxm74vyORfiRuJBc2mZxGfO+Esif6X7Xe0n+dhZ7nFdrbHAl3fYOfSh0lDRWO1PoktRgwfxzT786R9Ygwc42U4c247w2bz+JG1q/ihudqmkpuy/Qz7vXU+BjI52Yb7mgcynDw/T6u/l72G5SjGhTOwk8R8QZRDdJFYy9ep4u7jm5kd1uQBPzZoqMApOBldKU6qAqivVRZIksjSC5zm7vP85SHJsbpwIj75+kvnfuoLJMdcRqyn1lFfHJGzex3SGudqP7mkJvZqfnqcTPOCov6by9mleYzW39p4ocjSFz/JZ86RjjdZa+xlYzE9C4toe4UYOfmXI7vOoWByZynoGvPIqk67vBxPMd6yuL+csx5BojtRynlky0adG1rsvO950eLPr5zbOG4nyDMn0yul8N8yic6p/JrdDz9vekus+/Oc6nunrKlNyvzk4L2j355f//n900ljusozfVyZh7y9srPh5Gpr5TGZn60IjVvwFfjhQUMFluGEe7UwMRdAQxUbtHZ+adiE54ujflnZxC1JdXxevHAKlgqEBdKLdUJdNBHt4igKJ8NVnxm8TTXNvrN9WP7H2ZJR8ePfpfF0SCtGp/PyWAp6ZfG+Q2v0uG7rkV1Jn2Zf4/uJnnscLOtayf9hvk6izziLLTYWEDstyDy130aLp2yPlIecgQsUvstzQWYXepYVfSqGjK3Ev0vx0GyYjWXfFsUmyZ7aeAWK6bO+I5wNrf0WdM78QM9MjMk6xi88ZtGeBdHXVl6ydYyFDd679sFz67/nqDZmBV4nkWXkO5Ih0TnIqueocdkZ4ngr1sxs4p/RfP8MgAQ0VGANSjQqeZWXQIW59Bs9eWVJjAiJUBL+PtYlOnPRh0R7xEKRdyf9EjRyFtA4c2EE+83ljZf4/YjcycXEsmlZrJ8yfY1sbf7+PouFM4S4WWWhMFFMbRz8NdBnh328j6P929f7/KqgFnj+JXuJrl0Oo0tmPzqjWh/+XMnlZHbnm+PBxHVi84n9xvu4f+aT6zaa0OTWMb2jc0+R26rY0bEhzP3PGFv1GKY/1Twao+Vo8mexLjF5sGfB9Eww44yZOJjhbaj0Fd9+vn08OreFHyIiX1+ztMM0/i3eJkZv1sWv02TgeErOwLeg/yIsn/dxIksfl44n2N7aFnL/xVgT+ecxKKSxSvu4/UuZAHCgoQLnOXGZ7KhLYH/WEuu7LbF9/PQ5Jjc/hz/3i2Z2Ca0lVIvMn15Kd3JcbFhMIje6D0jeLOGf3WuJJoNfl/c3vu2Xcizgch/r58lcg/ZzFoM2DqqLUGRW46a4uG1oG3ORlM51bPL4sbsP1bMcp2+z3ep8Y3sVT94nLJ+3mymCkmZerZfi5up3sn98HgjxFP2fxT3bpoynixT7817adsZug0zOFN4nj78dzsfWVuKbzaa8N9m2yqOLhHO04C9NYYN0bIaaP2xHMpAP3Jmv2G3Rn3n/JeskcjMn7kDr62i3cY7G/vv43bdjr+fVX49R8zc5s3gO54FIzoSM22qBX37baoENnVsIN6fnu7inyPdlW8fo0djXLc5VJu/yWQU/PGiowEkkIXNiWr2YKRFmCcwkSbVuf+/m9CQqc7bx/c++T0+ESi6bQNu4BPkb3adNnGcTs0nuwX7eD/ZyfJpLoF2m6mLbCwRzCSXjmv2tTNl6G1xE+MveQ/vGMWQz+fE1epfJZiE71e+bfMX7e22c7Z1d6Dlz2Tq8B9nA2Zj+DcWXbf6X9/ILWOw5SWyvzyr7p63L+MLE+cYVQ4LIf9l+B+c5EPa/k8JOwX+p7idih/fR9m1+Z73a/rSHj4PCPl/e/7HZvZ8RNWdypmKc5WNTvSY2WIp1M1/r3/eSZ+buOKTLn9hTj3N23HUjmdTzIzJfD/1bnsr27zQ5uv/sus+gv/M//ZTJ0nkgkngw43hPt5aZI3tL/mo/yaFkFBJddmwMMW3tGL9WTwBmoKECJ+iJ3xdQFk5w/gItLngzzidSvrT6XrI3/81Tn7NfMvGyYvqeJ4qBpQv+IiZZTy7kfjHGS6ZoqLbP/iKIF8NjkMvL+8hf5u3CCr51MlX+a8/nBULiw/3S1e/ETqVfea8YCwzrVrzb4HihtSdjqlizsa3XmtNttRcRU72q95tM2/M9RmhsG8dy0Ne7Ldsc/7nD+/h8UOisIPnPFYCOwm9Z3Kf56F6K/c2ZJQq7ZXJm1LIPG9MY/zfyY+3KF8nz1JeJTgzNH/sdUtggHZvh55Os+7PWUHyiM5XM3dH6zmM011lxkBs0TxKTz61/Mj+bk67Dtkvk0+N4zIhFba9uz+oMHdmW39N+fYw6o/OYXPM3+HFBQwXW4Mt2S2B8ccdLV5MmtOyyTooNTmg60bU5PTEfJcs18suk76GfPRJzASS6+79pNPIE+0lBsxel7n112dxNj4O2tvHXzrmGKr+8juR3PuS1+mfvX7FV5ds8pmROlKHptiQj4WXZMLJqrP9L+FzIj8aU8cp75OeUfEZ7hBhxc6p4ZZ+3fXfbsUzDLhGlbzK2y+OfGxbOZtDpqSh8GHJIes7X5azH9biimLGxYOck8bc/T2xcEWyfr5vKW9hAEDnO+czv3c4NNRQsp9iE3pM/eO3gL7sG+83r7NE6cAxH/VeQvfxcm1citezPon+QoT+z+YvX9bGTxEMc1+zRnvF7nrM9/yRzy7PBvslzX7cNn5cuwzQ+G8V5B0CDhgossSevabISRvJTz12xxqSJTCVq9f71lgDpWVib5XGJX5Ff1NllsLGg2z2YCyDVvV2M7UIyl0ywn7+8xiVKn8vL5m7aRceyiwxxHz2mPWP53dj2TF/A67g4Mf7M/OvtpWny7he6jA2FgEPbmL7O4s/D40PMdlnbvind9yNGenys7s3Qv1NICxJZt/SPjld1TvI4y+w/6PJ6X+RrjXfdH33+Fa7FWgLbJupoziyRnvNc19dbQWxyT7GH0GxMv/56W/+12lfWlt/aWOvvfTTiauwhBJ2YWawmJDbo8ZWODwzbsDzq3f7ji2QLlpN0Ed1oLNs52HIeo7nOipBzjhB7+R/ZE5J1irghvgn9q/kkt5qXrpPolo5jmcXv2fs6X4itZ2ed1+syTGy9w/525xMABxoqcI6FxGKSVUclx/3ZUSKrEq9+NpFnnnCTyyBcOo/FyJPqbosac4kE+80vjVr3B8A23+zE/y+TzF6ih9GP5fcytXH+Il2i+fBN5rPCv1O6zFsBQoXKgkxrNj4hC9l1K6rl3waO57RPJk9WZOxk581h5G/+0YXaziaPLtitrUg3icV0ribEu2Vmz8oGOy0PfKQ1Nhs++a85ntlLy5me89z29iw3G9N6qS4SV/0f8OtYsHZci789r07iZuafzsoYgvdje20xNMkB7Pcj+bvMHAPNZil6nbldpmeL6Dlw5VwzckZmRb6hiJuU59B/Ma7Yf36dRLej/bL3dawd3yu8XpehycM5LrVbt+08nwKAhgqcYyGxmGTVyS7qJLFqsnXCs4k8dcLtl4EqWngN+aznmETeCh8av3wxKow8LHff29LXrvbOxnpq3YtL7hRSHLAMqf96wa3ftTl+32YHIyvpOokLYXahr132GrZ112ljxb/exlm81rLksUf7ar+LXHl8m/jwZOfNMYsRT9irx2O6/5r9OQ6bvUmOazHb7Nje7WuwfEcyxPO+zNL6G0WO63KKDaKf+DnPK86Ns7HECa0lDJ0WfKF1mcTNbtv2td5vBZnb497tsefDTQ7+SxKZs5Rnu43pT7YT7SH6kF143+AvbZdm4xW6H1hevd4BVbzw8yQGi7hJeQ79J3FlYyMZk+g2zWUbvKZ7r+MxwP6xMabX4P26DCu29uvx50I/8MOChgqcI0lUHpOsOu3iGIm2USYyWyh1wtoTebKEu5Ts1fOxhsjDFzzrMrdBhpGH9jlI4uaSCXvKJZgXHCJrftnM5q3T7Zjv0Xzn9dsvITdPPWcO7EKwbWhsegnXl71Bx6Tbc8RJ7Wfjz4bI5f1kZZExTj4XD7t+k/1NfHgWYjSTPyfG07CPYONpZn+JvzgnrhkwuvZ17D5WpxaHlSxso0rOx8A+CvHc5crs398p37U41WN7fPRnOhasDQ7OQjt7uy/KuBF7H+WN9ZiylL4vc8GII4L3JF3YBmRD0Znswu+Cr5tdqHlLztD0bBHNJ6t5lPXbdRn+L/Vz+SDyvPp3f13xdY+5QLmf6Or3msdas/G+pnzu41k/vffU1t5/zXZky0M/gR8JNFTgHJwMjwu1kByzi9okI3XJ7MR9OBHqBFYl50ZPoP0COL4AuxztstnnyHP+uiw65swvgEhqx4p2wQ/dC/kuyv4tMWKgFRWrNmJUnC1dhEnhws/tBV2jLt/0/YYpdoZ8/KNrvG/ur1D0+Bg4sEsdj8pGHX9O9doHZ1Azs9fsfIyz0GXLbZqvoWyq3z1JMWTjhQg5x/hb0e2Y+a29o7WkGBz56cjPOV1OH1uJ7zvG/hfhNRZs1PGxxf+vIvq6ya3zGY3dZRT7kq3Y597m6qxkMRfOVgLHpJZtSt9bdLf6RntU9P+9x3PqL3rTnk3us2eI5HRz7H6JPZI9ZvmC6TrSuk5/3q+vmciTxfnwGcnX1krngh8VNFTgHJRAegLfiQmwvCDvxCRCIpVHOEy4JSqZhr2u63csj0/i6gJ8ELOL8vuAbKT9HS++GdfiwTIKqco/TqaDC5fW+/imn6FkzYPiBwzOnPnr+eHxSEzleaxDv5jn4xv6pQY6Rs7FP+UtzgHta7/H94acnfaZ8nPIbepuUucw3COO7yVPfn396cdUP5scJbG7xiPP29r5Vfo/0J/9DD3FHQ2+X9BQAQAAAAAAAMBF0FABAAAAAAAAwEXQUAEAAAAAAADARdBQAQAAAAAAAMBF0FABAAAAAAAAwEXQUAEAAAAAAADARdBQAQAAAAAAAMBF0FABAAAAAAAAwEXQUAEAAAAAAADARdBQAQAAAAAAAMBF0FABAAAAAAAAwEXQUAEAAAAAAADARdBQAQAAAAAAAMBF0FABcIY3n2+//v7n28c3yTswePXh9uX3z7fX2TuC7PjLh9tP2bt7ePM27Pn6058ne/18e/fL8OdP73+7/frpbXv39vbR+Fo+f3n/c/v8VIhM6T5s199u71655z8s1n87q3Yq4pRiZti/2IOYxLldY46NOw3FXK1HNY+fP8X58hyc8zM22NG54WD9bwvyVS5r7V/NJM6eCB8nIW4elaerde44PyTrNLZWYudAv1oG8RXVAmcJ65EMd8Q4yRhii3XHPfG1QUP1gvmLv//n2z/98U+3f/ib/P1ZONmWh7QlGJOcpABNk4iDk4IbJ/vJc83RWqfgxDNfU2RrCY+Tn730RM7rCTGlSrILl0S35Trdp1cviSQmjuScXrDZHhPUOrvu5oKJhQqNE5/bd+zLfa5tqKp4ZHYZRsxr9F7+XbDDxHZWvjVE7hPnVvlgXtwNfeJ5aLop7j23uR7RtwzrUOmsKGw94oM+F3sQE1/ZNTxFLDCfb+8msabXTONB+c/i5ZRYvcsvE/2JuQ0KdG54tdmpnel5LJ6k5fFrNH0T3Tn/JOdz6dxWOT9lFj9zhh1tfiO8/D9t9udnbly5f6XjNN/nOh/GDs+dnPGD2GQquRqX4ndlX4PY8nCfFrN2nMxd8g0x0RXcDxqql8pf/uH2emumvoWG6ssv27zpQR5FqE4W6X5pUrmHTG5Nk21yGcqFcyaBHsNrbnZbby6GnXhukJf0SHx3dCmVqKSt9hJbnOfQn2flbHGSssk7Lkp7IdnCRxcchf0CcVy1F8H77bGnbGro61Xv5/Y7fW7Z1tuadG4ncd/H0f5BJ7/fveeW5+sz1s6l4+Ob/DmT6aKLH6XPHCWHnu8Yfo/vPPmZJUifZP0kvkec+vFik1wWeaf9dwqn/9L5n94FG6SbG2PP5dcmnlsm9T3ZM561KL/YPbXPIUU8ZHZlGYuzH86U6JnFic1TY6y2SR3DG1P5En02Vs7PkOuMPdV+Xi73+UiGpXhXDHvN5aVxYe1mW2pydxm6/XY7jjvCxqvst5qPwDXQUL1Q/uoPWzP17/6Zm6pnb6jef+A/w4XUkMvmczjw1X6caLLkfJGpXnzp1LITkvjyS+ESs0twcgF1WJ5wsZEvkjVnexWIvUjnybwjOasLtuKCnAElE9lIYs0WBhKL3XYSv/vlRs85HmZy5Bel3su/G3aIRYrxG+0d/CpzZhflNL6zc8t22uTYzu3M5mzD7dzyWCXz48/t8EN8l9lsw8Wf9Ws9rjPigz4XexDZPt2vCfsazcbZGMolH8lW6bsNZUOrF8np7T6zncBrnPVLJn9iX2vHRc7mhidnLcY6mT3L+Osc5pUDKpuxjPm6fB69D5cgnaNNeL1PH/h5Pq9D8rT5nGP6s2OZYhxnMd8o/GPwdnOfR/z2vG73Ep2dX9N9s3NIz+w4HSdjbz3Hsu/f9uTvbO+fu6yy9+lzCE6Dhuol8jf/ePunP/7j7a/ad6mev6FqPzaQXig0htaMh77aj9fKEiVfSlnSPYCTTy4f7+UTbt+jzzNouZpN9neV7SzaVmIDvUaGXTe3dbezfrZhEu8BWt/Ul4rUNo6sAKhYkLPbavh/s/97Jae6LMlGEmvtYm9z9IXW41cuffEr/+1giwG7VyfaudqL4P12O8T39nxk+suc2WVZnSNB5htfNN99fDNZm8dsNtnHjnfVfhyX2bk9wNrI02zWm783TS720djL+nVD+XAwxg+fqT20X9L4tjofrrHT4ix5J7qTXvHd/r7pJfY9IrH/wtkq6XGQvduwNlCk9lvkKPecoLaZtkfhu1J38qd9HuLPwXL49ypfmecZ1dgTvp2fM0+0SapDJ8jX8pk5r1ZOGzuz89NYiqnml+z8k+xGTjmX4z39pW+UMeicxkVxxpV/vP2t/hlNPto/21PZY74OeBRoqF4cf3f7h62Jev33f73/2N+30FDpxGHm7QlMjW3v8v2yfRotSU6TbgEnxiIJmmSU7JHPjXLO7dfoib4l6XDJhcRJMto1RZ4zHMjEtOS9NHYjS/Aac3EtUMWPp9lvxNzwlb78xmW1cFGXNJv4CzXD6FvNy2Rp/n2/zacLPdjsWP7T51bbje0Z/chr7he53f/0uZ0i88wZdO84hvu69G8+eH9r313efa56rvSTz23NFGeLSZyPGKPPlZ+aDu079No+HK/t8+tPuf+8XnZPlxtKWWc2PmCiP2HlWaHnmYvynIRtHOLC2a3y3YHumqkdeJ3Ev2dyZDW2WjvhnK/U2dPsOcHZxcvX5eoN1fbs9XYG9Bwrj/MB5yW1Jz3zuno5VuTS6zaGDD4uWvy48TO6/Id5ZpOJ/u3gzB/7GpnNdz1+u33Z/eR0Bw8HDdWL4q9vf/vv/nT7pz/8nXx+koaqH84Ck9TlcpSkkF3aOknqsfJe9rMJLHv2EFoC0pdmulcyTpKqTVa5nFFHiyTsj1vx1C8JXscn/GDjJMkfFgkNfwmViOxa7ym8roqLDKPHRnKZraMvk/Gb/ob97IU8Lmt3UfP8E3IYO8ta6bhDSP5EFue36NtsjkVi0e/n0L5ovpM1M78rmcxYIYv9/DyscBS3lc26bjKX92e76fHdXyN2Rrzo9Rq8pytKsmeMl2sip/KnyCk/NlXnyoGMH39zPuKa3jvblbJq+8R3U9qa/COKKz/uVdm2wY0j/eXBNu5d0UQ+krVcmdt+Zk+P9YumxWBm+5DrJ1RjWcYFO/I45aeUuU2GLeWd0dfLxzl2s93EhtZms/hvtvO6+rWzvZRcvBbpqeScnqf2Pvgu1UnOeoghJteN1zb272wy/KPsYX/Er51DGqNl2nIk68M2p/e5vcH9oKF6Qchv9fvH21/1Z9/Sd6joc0+i/b1JPG7sxp7gND55PQzZf6yf6bPRklK4SEySKub255UO29qkv74kUhsEFpJ8chkw7IPKp5rZhZCQXioKdZGl7z3Lcnqa3O7fA42LMrnMFmXL7exo8cLrsQ6zOS0+2KcarbeMsZf83C+nz22Ts6/J8/V7bR83dh+/y944slPFURwl/mO/NPl2H5HMLIM6B7S2+sUvtMbxeXOylPJ5udznFhda7hVYn75fjy21/4hr+uzO/MSWwccrNN97PawM9vk0DjZ9eN4eX5v8Z2U6SS6Ts1sSY8xhbHbqM9rjjd/t/pwhch3H6Ywos/ifvgNe6MOy6XfFueu23H3Y3rvPe7wdnJ8RR7kPeJ2+p4rHGrfXgZwmlhNZ0/hJdapjoNJtuvcmJ73b9U/3lHVJ73xf8GjQUL0U+N9N/fPtb/9SPfvWGiqXVGwy8mPjfvL56ZIDy9OTUkvOYS9KuO65mceMRJZibBQxl4QnJE6ym/WJScSTcQyvV/lUY32X0myW6nyIvwwcy3KS/T7YtZrPtE2HjZLLzF+yG+wT98zG70bfR5P5MRvH+mcXa+I3nt+fHfvl9Ln1sW9sL+P3+PJjNx56bnn9WWxYm8lZTHTt66j1aOz493G0TvvucHU+M1nUs67nIYmt03EBtTfFwBZbvGca1/TZxU4mf4PXqfTO6GckW7O/0894XBWDG/S+z9Hzt69jLnsc4Qwz/sxl53JjYk9DNY6fi2/Ts5HZsaIae2R3RuWQ1N7uzKtnWm5rS/d+Kp/YRs7uCsOWJv61rrttld3VXvv+Xi73mc/Tp80mfW8XK+syC8NeYvNsDEHjeG+TZ2MM7frr96QDr6P8XtkfPBQ0VC+C9qN+W/NU45qtC0jBUCVnSaD20ErS0Il4XNz+0irGuv0kgcXE8hBaIqJkJnsn+6gx/VmUqdkiXNRr7EmSPy9eTDttb06oq1Q+1ahLN33vyeKhkdjwEH1ZZu8V5iJiYmyNMc6+RGJj8fGG8ik/Cz6Wvax9+7jCN/teiSzhnAhD/vy95vS5bcWIlmPX1V/sydiHnlu/3462s7w/2kPeb3Q9SGe3vsje181w61fytRiP8eEo9XMU40auKOIuJcYCr5Od1SNSuSSmxnnznx28hpLJnb8R6+39A9nj2jz3Zyo7lxuZ7tuzj07WfI927tq/nQtrE4e5XlGN9bZNsL4nuex4ORO5j9Mc0T7TvN1vU/mS+OfnFKvJO8WIf/W8nb3xGwQ3Kjt6udznw9jL9Ep1lfOZ+jmNL/essNOu//5+28fYo8UZves/+geeDDRUL5lv7jtUGy3Bx78JjmPz/WRcvKAeQdOh/1uAbI+erP1F4pKdyD6/DCrCJdEvl+3ZYYIvEzc9T3zX/DG7cIVq3Yjo7uznL4Su06qNluWMl5P4x+417BjHxwuRdO//TmToxOvSZ6NbtPM+LtmLbbXvlchS+W35fXWOOi3mtb7NN8EmiQ2ysfl+Ej9m7hLH+l1i04dlNr7zLOzd9Jf46mNFV1qffG/96TDzj4hyhlzh323zpvs3ZutMqezH8SL24Pg35ykfZ56Z8RKj87x3DZYt2JnQMmXncsPpnurJ+smaZj49Z3uPWNnf6TGV3Ryl/1jGSQy3+DP7a72y90y0ychzelyj0sXZsNP1oTVnfrd6t1xmZG9fdz94+bpc/H4b6+SM+0d/yTnrOqzHqswj3zRbmh9Ld7nnwE7xfbeFj+NJLIC7QUP1kkkaKvl3VtearJEAsvftAJukKcnHJ5d+idkkHcdW+8nzJMm3pBmT/zp97XKdZI9cTtHH2mMtofF64WJq65X2b7B82RiXoDuciI9l6vtPbdtsI/v3hF5Dvh72jpeFYVVOf7Hs9hB54kUnz0u91L5lwWD2jHYe8+JerP8eI5kshd86C3bJ47PT/KTjlNf0crRxfp1kbLVf93Vp6xTZNy9Q9Ds/zn8mOyYxpnw3YvGIbfwe635NOSd234nOJnYmFONY5iQmRRcaT3aYx8fcxgdM5N/taXKgf5/IRrYNc0TGdC32xYINE8ozbZC9gw+77vxnYr/2nOaVus7iI7VDxmQNlqHyf7NpmdMovqu4aHPbmJ3KlpUu3YbhWZN5Vf4mr5E1Wdv4u80xcjs5afzRmgzHYFtrxWc8vuul4qutz79sQq9T7BvPf/eLs1mT78v7t7efUluCR4CG6iXzjTZUcrh9cohj6/3mSSO9WFbZk2ySNIl0jy6Pnyc6yXOisp0lJMm2J63NibavZxIp0eQIzwmSJdm/uiA899p2dZ+KM3L2GGy+3GOKdfA2EJsFvbrNVTzHyyt77n3e4Pc6ThT7HsX7SdzIGZnbpT5HRNszXN7RJryOOd8bydh6v65frU9Gui/Be4+1/DiRY9imlj+3nxRf9A/1k70TZL8k32U27jT7RZ9nRDl5Tx2TSdzu+6d5YcPZ8RSl/dw5cHt73xj0GXZk89aaonsQXcockenR3ulYYDnD2GJtYmIHDa9bjZv4tprX41h+SUUWz4TElJZ75gdeM5MxxI/Yw+zJtvQ6zOPrkHTN/ryIy41cDydLZ8F3grdlEhPFOWN5prp32WqdwONAQwXAN0ZPkuNiyxOzXNCdLWGWxQ1BibVdIDxOzU0TcnJJrFxarZA4Ry7zrn9nYf9xqTf5zZxYBJhn2i7ZXt5uO/piVnZu84ZMcX97QWfy2fWCTTbs+JeI+NLrGQo49o/3hZ4n9jXFWnZmWgzv45rf88JSkLN4ULT4dYls/ww/Tp0z1q9/nhVx+xy7n43BkwT5xcb2TPRncxvukJyXi9HHEM5ZIk+IPybT370za7UY1f/e55Bub5k7tRX7J5GFY8HGgcSwXl/YbZHlxJLh807qIx0/LT7TGPHvTIzEveZY/TzDDhnNlk0eoViPddNz/fjmP2b4iO3tbR3OmZCOJXb5sjgETwUaKgDAC2EU0OVF07AFEy6dbx32VyhEvd9aYaX8njZdep29UFFFWRE3I2bmBdl3Bet/Jf5VMdjs1QvRurnpNn6g/YpC81lgWQ6aRh9/KmeFsVNk3mGDuuDfvYGY5EtmL9KfwH+89lEctpg7kvMHwt9ze46CjZ4FNFQAAAC+eaTwe0HNzLOzWJQDAAA4BA0VAAAAAAAAAFwEDRUAAAAAAAAAXAQNFQAAAAAAAABcBA0VAAAAAAAAAFwEDRUAAAAAAAAAXAQNFQAAAAAAAABcBA0VAAAAAAAAAFwEDRUAAAAAAAAAXAQNFQAAAAAAAABcBA0VAAAAAAAAAFwEDRUAAAAAAAAAXAQNFXgMrz7cvvz+2+3dq+QdAAAAAAAALxQ0VGANbpj+fPvV8fGNvP/p/W+3L+9/jvNO8fb20a0f1pw0biTDr798uP3kngfQ/H0fvPm8xcDn22v3/PWnLTY+vTXPzvHz7d0vI3Y1V9bmuDuIJxljY3uV+88VAAAAAJ4SNFTgItL8SFEqBWpWDBKjIIwNkyUWpT+9ssUkF6ZpwVsXyZ7YeMlckbNYh4v7KPOX92+nuq/Is8JDCvJChxla/isymGbgaH/fDBcN1WpDzM1RH3ewt8hJ8Xmy0dZ/0XCpydPnqAYNGQAAAPDtgoYKXEQVglSsumIyb3wuFKyd4jtkexFevQ/7ZQ2Tbqi2z32tuxo3GndR11OsFeQ1d/ikkfs6geKk+g7i/k75QjdU04aIxogd9HOxyc9bU672YXIf1k1L0tQxbU/W/aIftI5XuHc+AAAAAO4GDRW4SC8gpTj1hXL+o1N3FO/c5LjCcS/CZb9QzPIct5+aM8aqIn5/VhTImRzZM57/FQrddO8zLPqE9+kNxhnU2qnt/buioepjTEzpxuhIjxanlYxvmn5qfW6wKnn7evo9yzu3pXzXbJFy704WtwAAAAD42qChAhdpDccnKiKpANRFfVXoyZxQOB7A62SNQy/C92JcvSN4ji5wWxGcfDdl9d/OpN+NoX38/pVMD2b5u0MVqw3ZZFwtg2tyuOGwvjWwvVTs8Hi752hyfIytNVTSfMWvaX/5y4G+hl9f0+I48y/LXMtBcZav6Uji51Qz1rknNgAAAACwBBoqsMgoPD0f37Tmav9uTlXcHhW9EyYN1Tv67tTW2IVC1c/pBX1SZHKxuhXT2XdhDov2pPi9u9FJeJKCOpE9ZbdlaybU+l1X/nN/18cqe8322t+pRob9RevUsdf58v7DQWzN1khk3PfWa2ywHbY5yq4SO0ovnqvPwyBrqNJY2e0xntm54gezh4v3p4hBAAAAAETQUIFFpCC1TdP4bIq9rPlhioZkhWxNU3QeFZitUN+aJi4yW9HryYrgTmxoZO1YuHpbPQZfjB991nLZZucces2M5cI9NAmZnZqfaE/2URJHaXyJ/zP5sz3p+cdtD92w+Pde725D71eOC9f87PI4u3gfEan90FABAAAA3w1oqMAiB02CKgDrQu7ehkoKXYMuOnmM+26Da3pK2arivcPvac82RhWvvKaXS/GoxuqogfKfjwtq1byk7zNc46Jsau2Q2LLFyOvSXjTnnoZq+D7TXeSjMaNpYlQMkQ2NTG0Nfu4anM7snew5ZPU+2sd4PzVb6TXtXOeHnbFXui4AAAAAHg4aKrDIQUO1/435rGlS7/YGZYZaJyuii6Jzf6YK8tef5M+yyPTNmIPWlX8v1mRIi3pPt0n27jy+GD/6fFhQK/t8jeKb99h8ww0V76Viardn0VBN44XG2Liz+rQGyn3e/fLmw+3d+77+8CmvQc+KZqljYu4A76PqWRXbY1wSWy4mv4ZPAQAAAICGCixz1FCpArQq4nTBp4vlFNeYZQ1MUnSGps29r4tMVciHdw0t80pDxWPqJu0svvA++jwvqK2+R8U3rT0amJO0dfseYy8VU7s9lVxVjGS2d88yfS7psNAo8bqXG6riXCWxa+eioQIAAAC+FdBQgUVi4UcFnv8shWhSBBO6SKyK5Z2rDZUieT8rMg8LYy1zl4efdb01m+z8q7i/zYbK61qN5XGzopztsKZjl2/sdaahkucscxv7jtbpOjhfn2omkjg5g7flDO8j0ZHixTVHiUx2rjRUNuaIcUZO2QAAAAAAl0FDBRYZxS8XalvxNoo7Vexun7nAVIVdxxR4pljOuL+h4v3c+2mRmTQHZg0tcyaPJ1mPYPtcKHR9MX70OdfV+mo+1q3J+pBv1xlNwvDn2GvEVOnf9oxt1mVWY2WtD7zOse6E2rM/432i7PP4HBjZTqG+y7Tbtm5OrX/V3D7G2TDYQPnPzAMAAADAXaChAouovxFXRRoXbdszXczq56Nwc4XspYaq7a8pC9nWOLiiui60BV8c8+c+PhTe84JbbODHJIXwIragPv5cFtSJ/jw22NL5zBXsbA9nq7F/4u82dsjVxvT/l5nfv4qRTA43rvazk4twepyFY+Ts/OYLf25El3w9a9+zDZXS29sPAAAAAHeBhgqsEYpWKdDmhWRrwqio80VrLxyn+IbKFYFmzSaPmR+LxrrQ7jSZeV1XtGobFEUpF9dKhlAw31HM+oZp5XPXlfWefPdj19ujfeZldz61+9vGhd6Z4j8ZI1g5jP10zDi/+7W9n9kWat1TaBsk8NoHY3Z2HeYx0OXVel3SAQ0VAAAA8OSgoQJfhVBQ6+YkhQrrWQNwjeOGilDN2WqhvMja/jlkQ9NgZHCxPApq32jcxVJD9XbY7gn89y3Cjc5K03U2npovuw+X/K8IsaYa0ofGBQAAAPCDg4YKAAAAAAAAAC6ChgoAAAAAAAAALoKGCgAAAAAAAAAugoYKAAAAAAAAAC6ChgoAAAAAAAAALoKGCgAAAAAAAAAugoYKAAAAAAAAAC6ChgoAAAAAAAAALoKGCgAAAAAAAAAugoYKAAAAAAAAAC6ChgoAAAAAAAAALoKGCgAAAAAAAAAugoYKAAAAAAAAAC6Chgp8RX6+vfvlz7cv738uPv+b2+tP9vNTQfv8+suH20/Ju+8fsevX10/2/fgme/djwHH1++fb6+TdY3l7+/i7trX//LV80WLt09vk3Y/DT+9/K/IW+eW327tX/rnjzeevfF6/VvxU6/j9LkJ26+ft1YfbF2dr8su6XRd9dYqJHbXsDs4jB2eq1u1Btl1C9vqVOJsDipg/1J3t1vY8hbe1+Obh9cbyWRbbhf2TOAbfB2ioXhR/d/uHP/7p9k+eP/xdMvYkfMizJHWESmLhAvGJ/+fbT696go4XjRSrCk5aKqFnZImtJeTTF06ayFviK+zzqGR9WKi3/WW/VuQa3Yvk/VDWizAuBpSdVtjXvXqhPnXRr+Sa2vmq/MqfoZgKl/B2lt60mAxnoMWHXptsc3TGE/uJH89f/rn/W3wX9nlMgZjofoLuVzqPxsfB/h06d0f2OVnYPXf8pPtXOlY5wef+JL8bsvWd3RIfBD0POMyzxEP0T2Jo5/6YkfNV6UFz9foHd2innX9/di+fS7Jj4hv2wcVcXdu0gH154O9m6+NxjUIvD+uZjXtAHIPnAQ3VS+Iv/3B7vTVQ//A3ybsHUyWu2cEPibIsQvLLwuy5J614MXdYlpCYFy+PjaBfSJTq4mNddMKdX3in4cRfX15yyU0uYZbvgfKkiM4rF6z3jY8NG1/r6waa3a4U/afQ9i3jOqPWLZyXnSS2WM/sws/Oh91z98VEbuuPRtNZn5kKr184m7xWkz89Zxf9fy9BFiGzR51vrE3lrOZ2OiL44Dnix9tkGu+VfHHdNMaYaEPGy5zIwbb2/uN50bbHFPF5Vv9q/+6rUj6va/8se+RzFLvMW7P8Xvbw9k/jpdQvO5fyLOxNtP3T+N/evS7PRbI3y5SNLVD+mp4/GhfW7vvTX/g2O5n3Qo/dNOY8JnbJf0pHbe8eC+SXV9v+eg3wzYGG6iXxTTdUk0R7REvyZs/9UsuSuhAvCHvxZHMISZhJEk8vujauSPB5gXCFZr/swut6zZJ4k+9R8kwvpRRrz/Pza3/lqHhLbfZIom9EP1UAlSQFVyPGb+NsMaEQ/9s9WVbaR1/kZk8Zb2NHn+dsDtHPW7RD7v82rigoz/n/Qex5xj7P81+Wi+hZZR+i2ehyjD5D/Hib9LhpRfqUTx9aTFhIfsm7Fd6GKiaX9VHxNcuVGbxHMf+U/ps/kv33M8h6JfFCc9Q5svFXx8BOprNb09jUjKnWPhHv1f6JH6xuxXrd5u55di7Ztom97Ti1j/b1DCO/2CL4W9PGSu7z69P89kzH835+F3wMnh00VC8Jbqj++fa3f5m8ezBZ4iKy5JWTJO8DzJ57MpNEJolG1hxJLF4Wu2w9aemCo10eMdmp90a3WRKu9HNynID0T4vXpstItnYPmWcxcukETizINgoA/Vz2jUlf2ck891TzzzH0XdnzTrI4auQXp6fWmfVI1o3oM7CC3XP3JevSbSZr5jHR3nXZ2rnRMSW6+3mDED/6/KTn7P64MPiY12i5giyCyUUK0ss+P4h9Y/POmXPwDPHjbZLq0Knki3tWNk1t2GLOrJvIwXHm/afkD3Ho3u/PZvF5Vv9k/S5HKg/B+rb9lSyi3+fbx6N4yXRKEXn7mlUjG84MQ2OLeM/2b8/etTgV/7/l9UccFOsVNs9iKI2BjXE+XCxqX88obJrtp5/xvsF2DRqT6lafc/DtgIbqJfE3/3j7p++moSoS5YSQiHgflwwrKPmFiypeDlcSlrEF7TNdp19YKzZycKItLgxzASR7FHPj8zX5eM9gz8qn9rnIO2x+hiP/7GtnRcmjab4OtlN7izyzOJc5mV7jwo/vDKsFwE6TU9mV90kv8gjpFOKoncOx5rmzLVhbHNvuDgpdeU9t86JoqvJf4MA3uY/rmIg8Q/y0uLeILaNdKvli3mZ5w7od7asRa2bdxKfsz5VcpuYdzrlX/ySmJO7ou3e/3T5+2vD2UnPGHj2vyh5RJgfP1+fU2qrLGufoMYpmBytrl0k/2/A6KxvKfPpxui6bnl+sx75Wch6x7631z/n4fvE8JH4kQg4pnmWQbz++SXQu8hX4tkBD9ZLghuoJfiFFQrw4hMPLqMHjkmRmcOuYPfdkdpAgC1mm+2dzziZwzUpRs0S78Ix8TX+zRzKuyZ9d9kFfvuzmyTu9INolGYqB6lIMiDxx/jqr8XcvFItlQeLtktq+U+vMeyxewiHmPEl89D13Xx7FeCHLdP9sjiqmzpLb8AJFgRLiuiiaTC6awfsUxVl5zs6cg2eIH28TbUvWSetbySd5i56/3hoImlvb1OYP0evzPn8fl/h0OR+ouWlu09yrv5+/YfZM9BhzZL3uF7HXmXjpdJvq9dyeBMvi95N3PW7svkWuVzrvcVnZoe/H9lDr6fGZjTayGJrGQCKD19kwOweNXT/1zMaUxH62frdlt63BrQm+PdBQvWR6g3V3U2WT+GlCIpD1vmyX4pciSWRJySTLPZlJcsr+VkknMZ+g8otbzVNjq0TW16S1+pxzl9p5ZB91kZAdwr7NXzrZt0vC6J09U89nutgLgrAxYtfML9lg5wkzf2l4zeryZOrLbIn+b0DSmGg2mMXLL//323+drbtItEOLfzpLqY3aWTPv5Fn37+7LXqTQvwVxNhxnz/qZmMXJ2rkba9JaMifGy0PpumYxqf03KZpyXSx1PLY45HfRpiks133xG2W+ED/eJsaWNrbi587QYxY/kW0e793k1nMTn9b2r+RKYsBzr/4tZwd83Kn7LOhBe+6f2x6bD9N1d7RtyH4x/juHNmCdZd0v9F21Xb9i3ewcpXZsttptSrrJekYmY/NBdi7rGNjI5OK1h+3Ls57Nbb7w4zmn7fbMbJTECfjuQEP1wvmLv//nral6/I8BVklmmrw66rLofztp3q8kyz2Z9YvVJ6Q8sVnWkxgnxHaBdLJ52bjpxXSWdul0vXi/Iqmb526efhbkbcxs5y9c0btfQuKT+QWycGk3jN8PWIq/J6PZ/ZS/6xhkmx6sNfSldexfKDDqrI3nds/dD/u58/7qZ6x/zsh9HGk2UnE2+y6NHbceB4cUOSbEZFo0rcdkNU7Oy0Yaq3VMROqxTxY/3ibeluZ9Jl/LDxv8/CAPaYYte0zmcVKy24N+xKzNdT44tNu9+vv5GyHu2rz+bPiJ3vmz1vaghorH02d5T/PYZiHe7Rq8fmYvjZJZ5JXvEvb34psiDyQ6m2c9BhK79zNkztKJmGG87NkYgsbx2iPmzb6aTKdCfxtT2RgVJ8FXxTPwzYGG6qXzRP+uqkoyNvFnSOIwidGMtxeJhpOST36cnCQRSZJv81xSJJYuDUXQjxJoMm5WFKSJ+C6afZTucQ89pj1r8pmx7Zm57BcZtm57haJdZBtyxsvgjD9W7Xgcf09JHbs1Mifzgb2EM0bs82eKTzP+ID6UfXkex4P4yZzvpHAIZ/EAr1/u+xYjs3Om1rgLpat+PuK6PUuLpjz/vd4KTHMGij1EP/m3Mnms1jEReYb48TYJetK8bgsvH32md25vD6/pc4rmYP4ZjD4i7zTf3KX/hp+/EeKOUDbQ7/3Z+fL+w7bftj99Z5nH0J4iD41lXVIZ9WdLKs9On6t8sK9frKt01vIP2SY2b+/tX7wkdk2ftf2cvXcSX/hn2Vm348QONKbay55FGa992LG27F/Tu9lZAN8KaKheEH/xl38dnz3Jd6jyxEVMk9eGJFObHPiZuSzy5GESm0tmIktP5iJfmaA7WTJt0F5BvzBe7c2JT8u9KMMVSA7Sk39Nb3J5tb2NrOml1caVF2eN+Ez+hrLWsdugXfhOTu33GeWFlsBrTuLvablizx6z8Z29hIv3Tldtq+y9IHL2+N79EC5yimd9vmpqX9JeC77Xe8/O2f7sTtp5yIoaI1eRI0xMtrWsfC0WaD0zf9ijjlXrnznPED/eJtp3ehxT6RJ9Gm06KyLzmCCbjlyR24b1Ir9cgPe7V/8kpurzs/C+24rWTWQeaBnruCFm+7H9+F3mg2Ld4hzdh+y/+5v1n8VMR+axDk2u/psG6b3X3cRlp515sWvfM7OHYNfIbKTiRK/9cJuBpwQN1QuCmifz/6Bq/4bq9d+PRksarDv/X1WTxMXJqEoCLVFkCYfncRKpk7xJSnuCdkmMZVtIRDyu2qsoAvY9+zO1d7/U9neyRkjE7fl9ibJdCKWe2R5tjr8km72MnKTLgXzTCz6QXSDa58dEO+ZM4+/JaXZftstc3lG4xHez+OV5bLequLDxvfuSY3isufvnQB8ZV+018b1eV+89O2f7M6I6Yws4XUuCLELPRWLrqDs/53nFuduofW/9M6Ne4wnjp+UMS2XLShfvUxcn7B+3x0FMdF/QX6j1Z13WtRhpvirsuXOv/klMhfPgOPQlrUd/8hjaU+ShdVn3EO/a3k3vFfjfkPa4iD6w6yq8zmzDto7+Ovm869DfG8S+Xb4YZ542vttSyUU2lr/8i3E19u/7+bPh1k3ejTVqe/O+aW7ya1TPwHOChuqF8Vd/sL/lzzdO9zdUkgyqQ1xf8NW8nqC2d58+T4ocl7z3RGifHxYDezKr3m9UxRYn+r7+YCTB+K7UN7XROl3P3A/FHkp+M8/rtSDbUQFgKOy5uoa90GY8xrbXafufsou9vDXs42ytcl6P7e0d/XuKKsadP3Y/mOfjXJb2bHJM7c2xFeXgPZusg7b37JzpdZweT0Gez4Zt6nymdG528mPztQlZo4qLnbbuV48f8o+We+oHl7eL5yMe2p68ZrE/o+c3ucs4PHq/0WNuG8PfrWBZMrnb2Hv0L+K7zhuyho2fplOD39G6vAbFj8hDduV3QUaav31+sz1P9mV/lPJ0Et2cXAZlMxubfh35PPTN9hFG3FhSv2U4X2Zn8vj+aTq7ef691c/HizrzaTwlOWEad+A5QEMF1mkXwSy5ZAmJiJd7S0KEed4LEpc8eG91we6JcCQr3qPt3RPtvkaTPS0SODE1WRqpji75mkTJa+i1RY95Iv5+Obxwd3s33OVp3p3B7Rkv1Oe8YFrszuzSCPGZkBfESVyp+LXx1m1tbeLP6O7L/YK2erAcao3d5sk5D37fyHTc9+zPdHEwO2f7s40w7hHE+Az7aln186575v/2Tq/V/aAL+CO6f7sPniN+DvExkPpI+VTZc9fr8P8FNOaTnlbujDyGJLYLHUu7HHCkfxK39jzEGBzj29nstmEZ29e0Lq9BY4Y9WXYfswe6WXkqMpvSs8SWWmcvy4aPVd5f24htSnp2/WvZieFXSx/f44wxdo+yz+NLbGDfWxkZ4+9sH5njz8N4n8xJ4gg8L2iowBqc0GKy8YREGJAEREnGX26ePSluCc9eDOO5Xi9eAO0dkg74KrSLNMShRS7zWbEo+CIjsJ+Fo3M5Lng6Q7Qunz0+0+P5tMjq7w50+5rMC52vi+SquU/pN5rSb6Xrn49zZc5zx08+ZhVdbJIOkqNjUd7HWB67//Ed1BH/Ht9/X5v9LNNnOs/VHUioWDuKPX7/RGc9XdvXFxyb1t5G1+8a8knTTeVcfaYl3hzOXzTmW8l/QEBDBQAAAAAAAAAXQUMFAAAAAAAAABdBQwUAAAAAAAAAF0FDBQAAAAAAAAAXQUMFAAAAAAAAABdBQwUAAAAAAAAAF0FDBQAAAAAAAAAXQUMFAAAAAAAAABdBQwUAAAAAAAAAF0FDBQAAAAAAAAAXQUMFAAAAAAAAABdBQwUAAAAAAAAAF0FDBQC4i9effru9e5W/+1dvPt9+/f3z7XX2DoAn4+fbu1/+fPvy/ufkHQAAAPBY0FCBb5LXn9aLoTNjf3r/2+3XT2/Td//qX7+9ffx90hw0eI1fPtx+ap9p/++3aZDCU+tzlrlNZf2Pb7J3iqTxIruGea8+3L5kstLzwnfeXxkrY+asxc53Afki9WfiS7Y7xf9ZnK0qv94B+/TMubyj+Z/noHls5H8hEW09P2cEzXmOGBRZh/7+82qOlnkcHydigexymF9KaM9jn3fbn44pAMAPAxoqsIw0DifpBUBReFUX4doFLJwZOy9KVopiufR3ubkIi3odFwSteJiNa2tfLxZWWJDjkAO7lQW6IitmQ5Mksn6hwkaP26j96vxVwPN3GzSbeJ86OOYq/xMsD9mmehflOMulM9lpMkTbiczRZmu27MzPmuMJGqpz8rbYev92yfeM0m2eg2bn4+fNTlsMBd2j7Ef25Fjo68zikmln7XJDrM5qOLs+fjYdX/Vz4M64k3M1j2t+2tbQeWLtTHQ5ft7Gb3b1cjm07W2uAAAAAQ0VWOZM40KYAoAv7tmla7F7rRW4FVpmX5QcXr7+4tR6ZEVgKC5qWJZJIyKyra313OxFxmEhNzC+L+ym/ZXGX1UQdr+UBaO1+y4/fz7XODAuvoessZj2MfjVcDJ2UnnIHz62S7v0YnmVJKazs8RUZ1/WYNnDuzVMLLFt8rNoYyPHx6b9HGPAw2fd+OBcQ7Ui4wrpGduYrR9kL20pOmXr5+8q3xM2hrR8lQ47yTlgHSb2m9keAAAINFRgmcOLymEuoXCJtYbqPT33l6XjZDGTwRemXzdckGuFD+/F+iRrBpLisdPWyGVvRep3c4mTvBNdCzhGjL02Nn+/y/xlaH5KiiPdDJC/QgPAc2R+Hhfb/q6YPcQ1ICMmY0w9W3GW2Wojl6cucKuGyj9P13WNc+r/huyd7FnowRSN+REcB03WNCYCdo/h7+yzigGWb5vvcxrpxM/auT9k7M/y+vUu4vXosJ/SPVblTTCxcSLeUv8PGwcd3NnM59N30bY/u39WeI4zDAD4ZkFDBZbpFxVf4NkFo6BxpqAKl1hehHWqiz3jzNi8eOyowid7zzqQzHTRf769c2uxXfTah8WdFAzpGJ7bZWnjQkEjNgy6+6JgevFna3e5Gg8q1ohgo4YU1pWtRJ40VrLiqBdQ/U/9juA5SZOzjx371bFu9/QxOD7HmJrH4BUkDlI5tf5pITmRh+xnnld+yM9yui7HZhXv4/mwX7JnoQdTrT+jnevuP+9LGxt9vOyRxUePm30Nlkm9/7R9zuLSEPUu7ame0Rgt+1m87p1ggxKRe1WGzH4dybPO98TM/xtdB5Y5rLvNO5ifkdoeAAAUaKjAMtVlW2EuoVa0+AuOLsvsskr3coXJnLwx0nvlF24CFxJyudPnfsGvzT+4uJtOvmjgQmMvYNreoaBJGqqwXiu2y2LAr90+6/Gb7975oqahC6J9T5Yh0zsvvPc9S1vJ+zhvIyuOaP9NH/ouFxWvIY7CnNwGdr9K9o2gr57f7O8p/XGFQrZmhz1mikIyO385tE92rgodSxI/OxuO85/4otCDkDOZv8tpvt/k6nGiY7rG7uHzVVxD2c37JSXqfegntmGe91bxenR470OZiSpGDmCf+r2zc7ix+3/4TusddCjPgZ6f7KNZ8hkA4EcGDRVYprpsK0wBEIogVQTyO3sJz/Y6uty5mCneHxYlFXyhfr59VBf8vhYXMtueft2lS7gVo3puKC7axR/WkrljXLLWBstZFplu7bD3CrHwkT3ts9IvbU9TGHWbVhh5nW7G7irO+ns/x+w/Ci0zJ1tHzZXnzf6E2d/G9uUYLClk8/GX2WpjXZ6oy3ge90/XZb8mseiej/Of+KLQg+hxN0PHNo/fbETNd3/uc08fM7Ojl9fu4+ym/MJnIpGrPFOln5QPTDxP0Do1vO6dYIOCFftn6/R5RzZggv2tfUWHD2yPsPfGF/pLljA/2UfjzxIAADjQUIFlzGXLBVB+YfWLyRQA6SU4xvqLvLrYhckF2IqJ6nLUF359gcaLXH61sXu+Fy6kl7zrMpP8/Hybc3QJ72PbZ5FRF66ydrzQxQ7eJ0Evfp4VwoRfW9Y89zfd0V5Mk4flm8hA+n75hXQme/k4IYr1id0HDm0rHqP2ZlmsvXn/bQ7/2y31b6h0vGTrz+KU5z60caoozgPpGezgbXtCTme3Qb5/um61hpN12DXxfaEHwWdJ62yQtbS/Xm/FNa2j/eh9ynoc2NHPsZ/JPiP+ol2GXPxOx9kEuz49y23SCXq0fbO1lwgx0/SghqWIJ/ZPeNfl3+Zu53DolfieCPa39vW+CKTz2z4cn0pHZls7/U2MAAAwQEMFljEXlS/WGHsBmsJhdokl7w8vxbQwawVCcpnzRd4vyOKyHxQX+f687bPv3z5TMaAv4dWGpF3isl+mQ1/f21tsaHyy7x+J+hDJ2uyLo3kaWSMdp9bK/dmKISpYmj0pbuxaR+u7OEhik/3fn5nYof3bv4fj99tn951IwcXrArFwfioK2bwdMlttrMpZj5P9e7wcU8igZCV/iT6J7ws9djlKXWof6nxjckWJ3V/Pj59p3y2m+ddzy3wrg+hoz0d8ltq/na/9LyT0O4e3cYbXo7MyV5+r9P+txbImzzlO5czt9mU9i3Mf/C/2DQ0Vy6PW7Oum8/0+ds065gAAQEBDBZYxl60v1hh7AZoC4PASo7nJpbiPj9CYIYPsfXTpa5n4a33ZVuxFTHLBt0ubn7GOIjetfST/QGwxLnt/uVe6yTzjk6xgmTKzW5NL75GS2KVjippYkOz+4HFVwTJZPyt00thUBZJ63/3Ecuxzsv18vArLMZSxx9W95LIFOxRF4e4D82xrMk0cFXs0svOanuHCz3yW03OW+KLQQ9auZZzpMM03C3b08+1nFXvtvUV0NPvzHnZO5qd9n8KuGhvjOZUdjuc6HUh+M17ex5jv/tXzu5/6Oz1+I9i/25fGb41ZYZPdful8v4/32ZEPAQA/OmiowDLmsvVFBmMvQFMALF1ig+pi99C4/TtDB8UCkRUlkeIi189b8bbv2ewhPzJG65+7gFmuzT78nRJjJ0H0dPqxTbWdxKYrdhuITrXt2vupzXJ7scy7PG0dZ5P9b7J18dNte0RaHLX5s1hQ7/uPfNmCsesj9kz33qhiV+a370hQbM5keQgTOfXema027JnIY6j7si7aXZzwXqvxL3sOe+p40l83Uj2aDWa2nshk8o1bn3Wfxv+Y38ea9Vg2t6+O96ajtrmNR/WsksOsl5OtaUls3Tiay+/d/lre7P3+nNeNNijl8f7nzxSbZGNl6yyPkDwhflT8vdlyOPvJ+6y2DQAAEGiowDKmSMguq0a/dPSFOi69fKzHFiQFTobD8RtGJiItRKrLczx/vRXb/TkXUa3YiEVEXsAFtH20fJ2m69BRZPF6y55Odprr/bDv0dbpxdL2/qOxoxQbc9tae3UZou5D5mDb1A8du74hFEcbtNZR8efe22eT/Q7QPuevyc4s43Ec9GI8ezdHFYTp+0Zmq40up5Y9vOd5LlYSWAf2/dp5ZILvtf0TXwQ9mlxHNp74IeSbdt7yOLaIfWRsl9Ou54tzFRv8WeTfx7e9vT/tHMf0/Ag8f+K72RrTuWzXPP6GbSq79+fOBkzie8L7n+TusvmvM31C/LTz0/6fiLJf9Jnxqd6n6Z/5DADw44CGCixTXigFpgCoLrH0Asou147Mk0vaXpZHl/c+xhclfPHqOcVF7p+3i3TIGeXmArMqggwyd3YpD/26jmILbyc7bkPv3y///VnbV/nSz8/9MGAd+5psy3lhkdqkKn6Yyh8bqpgxlLHZ9HX7s877nMl+Bd0G2lY21rp/q9icnYcHUdjY+C99p2Vu5y8Z233vWYofsx7t0ffsdvN0PY7sOuB9irigd0FOr08yt1oz6qQRmff9+j483r1T2HhyTM+PYGPck+eSTj23mjf8Jr9V78g/md5jjUim6+IZKu4iWnfsP54xZHeycbPB8IXIyHuGdQEAPxJoqMAyadExYV5UOEJhbC8mXit5nuMuYiXDmkzqkiye8zr6cu17lQXLt0qz1aqfHOIXKpbaOlf1nxaElT82siJGFT4hFpi4jy0YszkJm816XGayjaJLP1dr63dPUoxFPeL5LYrQfh4zf7Z3tNY4lxtFDJnzoaHx7HcptvO1Et8rW+lzuL9nXEHM1EU9rfPl/VtrL6ePkS95b8n2VzSZxTbq/EzXnLDQULH82fo8d57b7fkYxDWV3ub5iMX0HLf3VobE90RxVkr9iB7PHa2LimcTq2GtIY/EC8mqZCzkAgD8GKChAsuMSyR/ry9N4ehvJb8e+qLML/R2Ie+y/ygXoxRAc7/W+F9eYG14gC5YrjZUD6IqGO+B16wKPMeZsU+NnJX52aUxV2Nm8PR+/dYhO2r9xfbJWUkw9k/PT2zqgq1VQ2ueO1iu6fkYex35c88R30i8cyO0LEvXU9msNaQrugMAXi5oqAD4gVkpngEAAAAAQA0aKgB+OPR3EtFMAQAAAADcAxoqAAAAAAAAALgIGioAAAAAAAAAuAgaKgAAAAAAAAC4CBoqAAAAAAAAALgIGioAAAAAAAAAuAgaKgAAAAAAAAC4CBoqAAAAAAAAALgIGioAAAAAAAAAuAgaKgAAAAAAAAC4CBoqAAAAAAAAALgIGioAAAAAAAAAuAgaKgAAAAAAAAC4CBoqAAAAAAAAALgIGioAAAAAAAAAuAgaKgAAAAAAAAC4CBoqAAAAAAAAALgIGioAAAAAAAAAuAgaKgAAAAAAAAC4CBoqAAAAAAAAALgIGioAAAAAAAAAuAgaKgAAAAAAAAC4CBoqAAAAAAAAALgIGioAAAAAAAAAuAgaKgAAAAAAAAC4CBoqAAAAAAAAALgIGioAAAAAAAAAuAgaKgAAAAAAAAC4CBoqAAAAAAAAALgIGioAAAAAAAAAuAgaKgAAAAAAAAC4CBoqAAD4QXn96c+3Xz+9Td8BAAAAYA00VC+Wt7ePv//59uX9z+HdT+9/+6pFFBdtmywf3yTvX324fdnejfc/39798tvt3Ss3bofeN73efN7mzcY+NSLLr798uP2Uvn8QrOfn2+vk3WpBTOOyWBBEj9Q/KWfHPze1n572LNC+ud/W2M7wYmzN9Sj8xWfv2vmZx1OCj2G9N399YKeWJ7QOX6sZLHU9lJty8FyvFTumY+7w3YDke878+a3S8gXdS0+d2w2y7/C1/3zh3F2Ez9ZX1b0xO1ML9/08D16Ld23zp78vvo5/wdOAhuqFwge/TIh1s1XB6x0VPR1OfO1Ccvtwolbvoow/b3vJ/Lxgd0knKbTuQeSb6Nn2k/3bxWt0OG/bI+pLdP2CqNcgRI91G54Y72JhlY9vmm3d8y/v36bPDemFl/tlvyAncSSxn+wTiL4w57Dtkc8daBk4Hhcu8F0P/yxZX+I7t+9aDMjcMzEe4k8XTq9+vr1mWetYNnZsrNrmXsqzo3UoOJKxXFuRjVmdZ/27yXoUg+WdcQ2RobKRnEltnxGzc7uOs2THRZ2Fw7ie3FlLLJ7tiJLf/6VDs8+QfbsbXzWbJfYJurMv+/iCzN/NFmu5QJHm+namC/tYO7eclJ6X2btBlgcHZIs7G6pNj8r+9xPzap3DhdM+Ak8KGqqXCCcvnTjy4ikwuUzlYC8mEUqsxVo6OU0p1zhfzJ3i4DIRO0yScrs4HiJfekFt9Aujet/9dOclf5TMa5R9Kj+y7GvxZGNG/L/7h3Uc6+gLtSquOrTGPn4r6nvx4X3HYyZnQ6gu68V47b4MxYDIdHRxar0jzmYbXif+7P1RxtcRbp2Qj/qzZL8TZ57963WmNUo7XKPMWZkOgeE/sbG3VY7eL+x/6Bcvk9gvj62Fs3oHcgYrG4lttFxio99uX1y8eoYt7drZfn3s0RkSslhr9tvtq8l1q2KGZSlszLJrH2XnhqnPw/5s92WdP1iWNCa8jjlBvxA/Kr7CWYk6DJ8me/1Svwvxs39e0yXzkyb6UmRfi6czFDYJPhpjHy8DuAc0VC+QKgHMEscs0e/vy4vRMbmYq4um5LB46GQXzxXiJT8QO87sJBfHSR0rEjuOBEuyJDqzvaKf5nY/l5wlFhZtrnVY9KWXw8ruZHUXdX0B5ayMH/oeUdgj+NEWOaTfzJa7jIv2I3jtFovh/acPmw1VjBQxU8HybrH3ZXYOFDze2zgUWBMK+cK6/extz1bkOqT57R37p+1V2bST2YTW8fo3bGxrWq5x6395L39DXp7VxK4cPyzXHcXyRSS2Kz/HXCtn7fPt3S6zn0PQvN9uHz/JWL12vl+zZeEDi4y1+hf5cRLDlV+HL+zz1eI/pell9myxO2uo2FbGJjbmqhgTG1d3z5gvtHHFuTHy9s+77H1tpUNh8yxHR/klbg7vLEfly0ciNrXQnplemspH4HlAQ/XC8Ak7Js1r9IsuvxgdaWKVuXcnJ514s/cPoLww2qUwkli7gJq9q6To5+/v04tVES6W5ofNn/1PM55g+0Q/ZbJ5lpIz6bAV4x+pwPi07XUUW1qHRB9LfvnbmLGXfsouUz32yyZ7XRhb3/szlXPisqbvhulYeNT5LNeJBeE0HibymDxw6M8NdWZkbrJfQNux+TCRiXXYn0vsPMKWnW5Tib/2o6Z6fdZNnbUFe6ycQ5vbRP/+zJwF3t/FnD///LmKSxezK/48iegb85EQfbbHV6abHrPNMbHYyPdrMTTRbeaX/uPHIT96/yuMnxQs85KNrd9XMHvuvtQ5tdlh103L7mzUzq2Jd44lP08R4kfFV7CV1i+xL63V9g62VO88PTayd7McLbHU7XKOEBeXiT6v9UlsBp4dNFQvipYU9YHfE1y7vEqKJNk4SjghGerEyolY1q8umo6+2GKyGPrN1ribdpn4PcQGk0uIKObG58lcT7igeoKl7zDI39AGGyVziLndV5NzHzfGv95kyIu1hpaH42D4t8LLYWV3srqL2l5AuV56PY43tmcc1zmK/cGBLbrP07kDkU2PVetuNsz8aPUm5ntpXaM96guc5+v3bP9K7zEn2Lb7zfkv0GMmkWnI2nLb7CxdoK+/22eT9aO2vZfdnL3cf96++9rFZ9lD1vF+92sxRgZdTDfUeilPYcPSv81vSgedY1P9ml1JJz22v8/3i/uUNPtYW48949hct+DHBsu8ZGOS+SifWER3Be+TxEAGxU1ha73m4ToJxhbtPMd14l5LOJljHtSct+mef87Ou4TYQMeNxLjTWXHFH+DpQEP1ImnJ6YGXY3Z5lZhLvX3Wl2SSGJh9Tn6BSbKU4pfGZxfWY8jsl13KybjJhRz8wXaZJGpvxw1zYfBebn4yh5javXGUnMfeyj8kQ7LfjpankG1gL/9M5v6dgl1WV9QY+xRxpC94+dqt6eA1p3IT/rJuPme5+/Moj5Yl++zX/WmzYdbAWL3P4e3h1+FnbHsak8Vy19XmB7Fb+26mt22PhUlRup85ItGN5aIfPaT3h/45i+hEOkefNLzsaXxb/3n7+rX9Z/oFPfTvifK4j3EQzlu3H+Pt7GI2lf8+WF8jQ4KyB8dMl5PldzIrGc3Yhux3/KxC1vT+jueWmcSu92NHzsSxjbscU9w6Zs/dTuoMZRSyTPfP5rAtkrErHOStypYZLPenLeds6358fyzTfN3Ndpuu9CO//KO2ha0ex8g5pAfFm+iT2aeISfCsoKF6cUgCNYliNdlNEpsk2LVLKVzM6mK0yXEkEDM/TRakF63R57TftnOQjK8i+rpiY9vPyiSyGF2brTP7Bz3b8zIptj0DWmdlW/rMcieJf34pLSRns48dXyf9DZrX5dFfp0jsejmymEnt0tllqcfKel2PBf0vQzr1OFqQfcP6Sc8XMnvnPhB7xvX7b6qasK1FdqevM7vk8dT3I3lJ13Fe/Rq7vHwGRvyGMVu88G8ADLqJDF1W/+5+RiyWZ8edvTy+rf92mSeMvba5zQ/8jGzVdOV16Gu/Z3XGUjtb2Z4C0Tf37x4vyn/sc5dntO21L+zY8b625xFNHppDjfo+r8gPu03XznVJiN+mN/1Ycngn7P53z3aZ9zgQnaS5sLbSOcPbbWYzsbsaP5OxrdXnXMmxRq8JQy6tZxXjzS4TefpPX+z7bzZdkeM6I46edh/wVKChemH4xFhdZjqZriDJKl8rQMncyDDksMkxXpj6+Uh2elz8Oi0g7qU1O102tmvYJ9nfzdPPok2EqH8jKY6i35oM7Rm/b3NiLKwT5deXkuyZ+6c/a2gd0riI+Esui5l9zF7UyOcyrt04oV+2Xh/hHvuNtfSFHvexusXPeUEQi4Fc7zg3rm+fsc4n8sIxtW15z9QvBM2T55luLCfZ+qGy5lhZh49nDBtbH2j7dh20P/a92tdkN/2McTYz79V54/XbXnteODyDPtbug2VI/UtIHGsfspz+PPf8wXoP+fxYwu8nnxd1YtvJd1R3e7BseQzXset8ojD6VLCPZN30R6qdHTpmzz0Oeq7wOsjnTMZBoXeC2NmSzcvG/frpv5Y4uMqmp3wXqTVuLidkvjjyA73vc/T8wx9xv4zYmvSRvdrZWMHpC54PNFQ/DO3A6guWv45FVwaPLy4PT0hq+wWxmtTtOJv8/Jym19EldRq9riS3Sk6zdyu6zNj2bOViMuyX4ngWbEuoiz19T7APMhkO7JfKLnPss9xGRh6vTygM+uXfPwvZhbijdM/e7/u3cfTbw/a19rmZPhYvQ2nngD5fzdabjjOsrsX5JFuq/XN5xJ7z9X3BsI3R6+xnd4z3e8+pYqXpdOA/wujG45U+y3Jcp4o/tlViT0vmv3Hm9t8guBHO2Cc5K3Z/mWv2bDbh+fqMKd/lOhSx9UDERpV/W3wqH7KvzXgZQ7r5GI9js/2GrdP8ttPjVNu3793fuTmT2M3t3WSeyuL8S3uY8U2fJO5FdwXPK+yXyC72dGtMCPpxvMVxbDd/bhuZjaZMbE74GGF4jopz/9nhfWR9+TRnRho15/vA0+wNHgcaqh8FVxjpxOMTSIYk2zqRadKkxviEUCUQdYE5uas51QV2F7z3Ji//j4azRNYuN227dnFYWdq41CYTaH/nl9q21Xu5UL383l79MjZytwsy2lX5Rz9PdA9+0Tqpi22ml1mj7aEv5UiPF5Kz6c3z6PmIQdaZ97T6BFmUnP0Zj0n39nbRMR/tlvnB2nvtEh266Odxbl9/Jr9eJ7MR/c9FOZ5dbEbZiagz721iYH6+uz+6zP1drrPMj8+vk+vVbPvGy+9xPnBnaqzd5E58bfafxf9mU/vjkW1N/ndmtC7J4uZkOL/eA/uotE+TR/lKfGzHi5/bv4vxcZSN9fs1m0UfDkZMxvjLYpgJsdspxm+MfeK7/b1bk581G2XvOyZO9jwrNhZZeixmOiYk90+H9gr6hfFq74VzvkRpc0HbSsNxoexR7TvG2WdmPMsQz+n9RJtYfbr/9BzwLYGG6oXCiWFLHIT9Wzd5bw9qfQF0ZonckyZbgouJlaTa5aE/fQKp5kTYBklyXUeSb11kiCzZJRL2dYUUQ4k5XbeRXGjVhdEZOjfZuixt/xryy9D3y/s/GjuL//0cTfMrXzbd/+4C6O+2NVknczFlthR0LAe/8xpFXGr7qXGki/3/+cjePWZpP71P1z08W4otbQO7D+H38p9nl6i2S97wD39qvA31nrxm1yvxj5edP3e/vmn7Gbv4eTJm/xz8F/epbG1k3ZH5og99ndvuDNo++lnfO5ejwedOZOBxLlbD2sbmxZgJwVbNN7l8dWwJ99sv03kQ40XOmhvfdchyYWLPbD95XusyfpRLx09/H2OSCbHbYJ/nOrPMVc5veoZ9NkTXIx2U3Hvuc+et3wOVDB0Vt/F9YY99z/5M7R1s5ezc5bqAliPE/47sR+Pzs9TeJ3ZJz1/zVbYWx1qVD6Y4mwQ7t/NiyOMMPA9oqF4UI2mYZBcSXXLoacwkCaQXXUp1SftkUT0bz0PCVu+yRGZxF8lF5CKu9mv29klYXQ5mnr80li41Nb5T+kl0PrZNcUksM/PPwBQPTRczJylIxN70rNmW9J3ZqSpqeL6KQzeO99nX1fo43XgerdMvM1mjvrgdRu9oN/GD/iUR9uzM4++IeBYzv2fP+vPcRhbj5zZurGfn2TU3gv+izJWtw1oErzfsTYXyrAhdwdsn5kLR0cso48R/98hQ+Sfibd9stMvg/RdtbbnffrJ/dj6JdqaU3aJtiahXNbbez55f+06T7dX8q+w48OvJPpW/WGYfs0w1b+wt/++8yhcyf/cv5R3exz4f8VDZYcFOe050z4v7ivdu59K/S+1Urb+/q2Vj+2Z52clmz0GzcZHP6/OXzXN+OIWLvV3mbgta+/pZBE8PGqofCZPU8oNpi4CTUGLZE3m2rk+ELoGoZ33NPJEtcJB4vwsSW9oLo19+CjPe2nKVY5vLuvNLg8bkF4Ep8sIllsVEJ9G3oq1r4rnvxReVjX8b9y1u2nnReq6eD5Jfxm778I+Fnb9kR3HY9E4LsRn+As5sO7O3ZaZ7rduIld0eJu/Ie7OeiwmeF+JkwxVJO9mZuSMXjIKqy5qt5d8Nvfl9JWuB9sdhQafn7rq3d9puJ2TQ+91rv+8LsZu1t/Nlx98xzb65rwS2ZXKO+aybGFe5zjwfPjfy8N5OFt5H1qGxvEfbW3yaxWfiZ1M3CKmO+5792dg73seZnRv0Pz5vc8P7g3s95Iouu5Zr18fnopz6/CUcyDdH20TZbo8r+ou3NZnB84CGCjwUSj4m0TMqOZjnMamai2VPfIuoRBoSKwDM5CI3yLgYs6vQ/NjMpHGbQD9y+frTZ3N58tlIxmaMS1lk6AXUXkSYs3W1AFih23HIko+recRZPlUUOWRu+3djB3KInV9e0XOP/X4IuOg99jvHR9JQDeSupHN5lHv2fLDFJK3L/tHnmmN1rBdjt72byvPcJHkzO4N7Q9jt1vWe5LZuq4MzfYaruWrkdooh0dmet8n98UD5wX2goQIAAAAAAACAi6ChAgAAAAAAAICLoKECAAAAAAAAgIugoQIAAAAAAACAi6ChAgAAAAAAAICLoKECAAAAAAAAgIugoQIAAAAAAACAi6ChAgAAAAAAAICLoKECAAAAAAAAgIugoQIAAAAAAACAi6ChAgAAAAAAAICLoKECAAAAAAAAgIugoQIAAAAAAACAi6Chesm8+nD78vtvt3ev6PPb28ff/3z7+Ea9f/P59uvvn2+v9ZyHInv+ussweP3pz7cv7382zzQ/vf/t9uunt8k7WjOuN/j59u6X2fvZ2k8I+2KzxYl9yUa//vLh9lN4l/jyySG7Pn7PMg5M7FrYf6ldItP1qzVm75ijGLwXsfWQ238+Pj8Ex0+Itwf4kfPGU+oPAAAAfF+goXrB2ILqKzVUvCY1UUS99lFBeL2hOi64n7KhYpvv+p8kkemnNx9ur72uhwX/08B2Oyqke+PoqAr4Kg5qH51sCJo8Zo/27OP2bDVG7Gcbg+Zdof8x6qyEc+nP7ib3K3lWn7HkvDNz+4mPrWx2rMyn50cNHQAAAPCjgIbqpcKFnS5+kwLrKb9Dxfs/T0PViz5e3zR4B6T7fV2yglZD/ivHPEL+yw1B80nwe1XYCyEOqv17A1nKJ/sf2W+KsR/FUNE0uRisY/WgYSyaYm7K9XqscxbzKs7N843ybM8bKkty1vZ1V84hAAAA8GOAhuqFMooyKWjTAtLw4OLIF9aHjU0b2+a964UxF51HOiSFI61TFKyzAvhxPJXdZV1dEB81p6fwfltCFddhfpP3PT3P9FeQv7L9KXaaL0nX0AzwnMfEb9qQbXu/zp5rHtZQrcZNgpKh75vqU9Dtuts42NXFnvJL3xcAAAD4EUFD9RLhQsgXcrEQr/8W+zpUjMVibSvK3tu9TKGpi+hWpHEBuxWIvJ4p2lTx7ucWLBWVD2+wnJwp1RjtK/sdhW7f4dsz33FYIPGFKZhTeys9wnutS8TEAZGt3+WoCnieM+w483dlU3tWzsH7Payh8ky+C1XB9shsTmv9dvtC621/5j5RtjG+yOVY1wMAAAB4uaChenFI4UPFoy1+ksL2CRqqjhS1am23lyk0VeHWC7TeULHcplhVxbub29e1xXMs+vizWtN/fgxi7y5LjW+oZJ7x3V4g07v23btdXmePR8N+U3FzFDNNVq8nzc/sfKahereN/fjpcyjq/Zzcn2JX0UM1Dds7I0PbS2Llftve31CdlWGc/91nHdLt02ZH0p2+Y5jGPM1v+ylf87kqzgi/W9IFAAAAeJmgoXphSKH2+fYx/G2yLigbR8XxZXpRR38b3tZ3e5lCUxXEvXCrmxxXYGYFuCuYffHq1673+vqQ/qEQJkjProO2Zar/o1GxQ3vPiucgj5rL72xzYOKAyPQxeyZx7Obk/tTzJg2VlrGvy/aWJmVKYpegX8PHZAWPy/bSqHVkXTn/xkYbEltdd9U4qTHmfHW7tz/LH3vs7xb0AQAAAF4iaKheFFQkUWEpRdP5hkrmpUXTCr2gokKUfrSIG6rtORW3bq9YxFq5yyZHF7xmrhrjCualovRhDdVFG5pilHyldCLbaflYZ9GvtNOdVI2AbW4Sgj9s3Pl1wz5Nt6l9fAy42Jr5W+Sw8WFlUPKWuqqmwzy/8/wEP7bzQN+VK3xMsut5rz+RXFY/ZtdFvfNxxYj+VjZ/vgAAAACgQUP1ImmF2FYkcsEVCqSCWaF8AipouQjkQqwVn6v/hqoxGoWswCvYi0NbUPJaTbe92FaF5Nhr7H+dYfv8fYIv3LeCWL4bQMWxKvDVHCmkP6fv7od+LXfbI/PLLE4OGir/3sRB8p5JGhuWrT+j92pO7k8th40PK8N4V8ZFIk9F0K9xaEdC6SWNknvvG8sdq1+tO32dzVd0XZUs3i7si4edHwAAAOD7Aw3Vi0SKplNF/cOg4m0rvHRhvBVj9G9fQgNkGAUxURWz/JzGTws4X1AKXPht++y/QXDj8Taytt/lzeg6FAX6VFe27/ZusbC/TNIATW0fGiLfENoiPjQcYf5Gah9at63j3uexs9pQjc/jucwN/jPkjUnQr8EyTn3nzjDZxYyX97kvon5jnH3HtvP21uy2VfYzPvL+BQAAAH480FC9SFwx1qHiqCqsHsRezPrC2BVuptBMiui8KO4yq2LavO843Xj9UVTqtbnYfGhBaG1fFc5GP9cQ7LDNimJ9fzcphi/AcvG652Gdgy/nBXdoOJJYKO3Tce9nOogcNj68DOKb9ssbeIzSQe015lXxWJ+xKi7M+8mZyN4Pxr5jnOgQbLKtF9bq54V0ou8sp/pGe0Q5AAAAgB8DNFQvElvUE1I0bQXSm59H8eMajUew/2hSVhgrQiHt0MWjedaKN/21HsM0vUZBaYvduLYt+km2rAheI2mouDhN6DJkRSk9a3KTPKbg5Xcko+zl594nf0Xba+JTZi/GLZU8IQ6yuDko2n0sRP8S1seaIAPvJ/8GUOImbyDGPHpvY2xfp7CXl9mg4te/G/GU7LfTGir+f3/5/ds7tzbH2C//l9v/0cWTllN/3XUPtiNUDFR+BwAAAF4SaKheJLqoPyqEFwvls2SFsSItxBShKObi1BaRUgS6opTHSTF3raCjX4gha1wrBrXtDwrnjirS6TPrZXQda8o7LZv3373yJ+wF8sKPSwa/142MtxWjinFDacOmv4qVEDtMJUciA6Hl0P9Wbbmhkv1SG23UcVHN637e3vG/T1xoqCY2X40NY0vv2+BrQq2fvgcAAABeHmioXiSjSMyLS88Yn7+/wEExdaahig3GwL8z6+qieAVtp6SBW2PRlq7x6+NZn6J5YJsUNg3zLss/kP1EvliAS+HP7w/jSxF84vTJ4sY0nGLfMT+uEZuAZJyxv42fuK5qxpQsI9ZcQ9XWPozvxM+8v7FnZedhh+gbeZc3TbN3kSjPwNh5R61/kAMAAACAlwIaKvA0HBRToxjN3/dijQu6osHYaQXsapG4Sl4wfj9ckZ/t3Qr4w6awwfs8gf2/HVRD5d513ffmi2PxuJHledO4Ho3UkV13n+2+vq+hGjp1vVRTN2GPF9WsvtyYAAAAAAZoqAAAAAAAAADgImioAAAAAAAAAOAiaKgAAAAAAAAA4CJoqAAAAAAAAADgImioAAAAAAAAAOAiaKgAAAAAAAAA4CJoqAAAAAAAAADgImioAAAAAAAAAOAiaKgAAAAAAAAA4CJoqAAAAAAAAADgImioAAAAAAAAAOAiaKgAAAAAAAAA4CJoqAAAAAAAAADgImioAAAAAAAAAOAiaKgAAAAAAAAA4CJoqAAAAAAAAADgImioAAAAAAAAAOAiaKgAAAAAAAAA4CJoqAAAAAAAAADgImioAAAAAAAAAOAiaKgAAAAAAAAA4CJoqAAAAAAAAADgImioAAAAAAAAAOAiaKgAAAAAAAAA4CJoqAAAAAAAAADgImioAAAAAAAAAOAiaKgAAAAAAAAA4CJoqAAAAAAAAADgImioAAAAAAAAAOAiaKgAAAAAAAAA4CJoqAAAAAAAAADgImioAAAAAAAAAOAiaKgAAAAAAAAA4CJoqAAAAAAAAADgImioAAAAAAAAAOAiaKgAAAAAAAAA4CJoqAAAAAAAAADgImioAAAAAAAAAOAiaKgAAAAAAAAA4CJoqAAAAAAAAADgImioAAAAAAAAAOAS/+b2/wdFT1jZ619dOQAAAABJRU5ErkJggg==;" parent="1" vertex="1">
                    <mxGeometry y="310" width="852" height="464" as="geometry"/>
                </mxCell>
            </root>
        </mxGraphModel>
    </diagram>
</mxfile>